<svg version="1.1" id="Layer_1" xmlns="http://www.w3.org/2000/svg" xmlns:xlink="http://www.w3.org/1999/xlink" x="0px" y="0px"
	 width="100%" viewBox="0 0 512 512" enable-background="new 0 0 512 512" xml:space="preserve">
<path fill="#C6001E" opacity="1.000000" stroke="none" 
	d="
M513.000000,89.000000 
	C513.000000,200.688675 513.000000,312.377350 512.531372,424.533020 
	C341.708466,425.000000 171.354233,425.000000 1.000000,425.000000 
	C1.000000,313.311310 1.000000,201.622650 1.468657,89.466980 
	C172.291550,89.000000 342.645782,89.000000 513.000000,89.000000 
M350.229309,283.318451 
	C350.229309,264.206573 350.229309,245.094681 350.229309,225.531143 
	C328.299683,225.531143 306.885406,225.531143 285.013977,225.531143 
	C285.013977,200.855087 285.013977,176.629288 285.013977,152.241379 
	C266.158508,152.241379 247.765900,152.241379 228.997223,152.241379 
	C228.997223,154.104736 228.997208,155.732376 228.997208,157.360016 
	C228.997223,177.850983 228.997391,198.341965 228.997101,218.832932 
	C228.996994,225.544281 228.996460,225.528915 222.536285,225.525314 
	C206.210144,225.516220 189.884018,225.522308 173.557877,225.522293 
	C170.444153,225.522293 167.330444,225.522278 164.099625,225.522278 
	C164.099625,246.762512 164.099625,267.467590 164.099625,288.635406 
	C185.826431,288.635406 207.229431,288.635406 229.120514,288.635406 
	C229.120514,313.319550 229.120514,337.543945 229.120514,361.673981 
	C248.011688,361.673981 266.405212,361.673981 285.276794,361.673981 
	C285.276794,337.139832 285.276794,312.928558 285.276794,288.541840 
	C305.745911,288.541840 325.733063,288.475372 345.718933,288.607513 
	C349.035004,288.629425 350.853027,287.941895 350.229309,283.318451 
z"/>
<path fill="#000000" opacity="1.000000" stroke="none" 
	d="
M513.000000,88.531342 
	C342.645782,89.000000 172.291550,89.000000 1.468657,89.000000 
	C1.000000,59.685326 1.000000,30.370651 1.000003,1.057494 
	C171.666672,1.059011 342.333344,1.059011 513.000000,1.059011 
	C513.000000,30.099575 513.000000,59.081131 513.000000,88.531342 
z"/>
<path fill="#000000" opacity="1.000000" stroke="none" 
	d="
M1.000000,425.468658 
	C171.354233,425.000000 341.708466,425.000000 512.531372,425.000000 
	C513.000000,454.314667 513.000000,483.629364 513.000000,512.942505 
	C342.333313,512.940979 171.666656,512.940979 1.000000,512.940979 
	C1.000000,483.900421 1.000000,454.918854 1.000000,425.468658 
z"/>
<path fill="#FFFFFF" opacity="1.000000" stroke="none" 
	d="
M350.229248,283.795227 
	C350.853027,287.941895 349.035004,288.629425 345.718933,288.607513 
	C325.733063,288.475372 305.745911,288.541840 285.276794,288.541840 
	C285.276794,312.928558 285.276794,337.139832 285.276794,361.673981 
	C266.405212,361.673981 248.011688,361.673981 229.120514,361.673981 
	C229.120514,337.543945 229.120514,313.319550 229.120514,288.635406 
	C207.229431,288.635406 185.826431,288.635406 164.099625,288.635406 
	C164.099625,267.467590 164.099625,246.762512 164.099625,225.522278 
	C167.330444,225.522278 170.444153,225.522293 173.557877,225.522293 
	C189.884018,225.522308 206.210144,225.516220 222.536285,225.525314 
	C228.996460,225.528915 228.996994,225.544281 228.997101,218.832932 
	C228.997391,198.341965 228.997223,177.850983 228.997208,157.360016 
	C228.997208,155.732376 228.997223,154.104736 228.997223,152.241379 
	C247.765900,152.241379 266.158508,152.241379 285.013977,152.241379 
	C285.013977,176.629288 285.013977,200.855087 285.013977,225.531143 
	C306.885406,225.531143 328.299683,225.531143 350.229309,225.531143 
	C350.229309,245.094681 350.229309,264.206573 350.229248,283.795227 
z"/>
</svg>