<svg width="450" height="450" viewBox="0 0 450 450" fill="none" xmlns="http://www.w3.org/2000/svg">
<path d="M450 344.16H0V344.385H450V344.16Z" fill="#EBEBEB"/>
<path d="M404.91 358.641H375.102V358.866H404.91V358.641Z" fill="#EBEBEB"/>
<path d="M298.098 361.089H290.277V361.314H298.098V361.089Z" fill="#EBEBEB"/>
<path d="M374.202 350.289H356.931V350.514H374.202V350.289Z" fill="#EBEBEB"/>
<path d="M86.0849 351.801H47.2139V352.026H86.0849V351.801Z" fill="#EBEBEB"/>
<path d="M99.801 351.801H94.104V352.026H99.801V351.801Z" fill="#EBEBEB"/>
<path d="M202.635 355.599H118.323V355.824H202.635V355.599Z" fill="#EBEBEB"/>
<path d="M213.3 304.02H39.5192C38.1578 304.018 36.853 303.475 35.8912 302.512C34.9294 301.548 34.3892 300.242 34.3892 298.881V54.594C34.401 53.2404 34.9464 51.9462 35.907 50.9924C36.8675 50.0386 38.1655 49.5023 39.5192 49.5H213.3C214.663 49.5 215.97 50.0414 216.934 51.0052C217.898 51.9689 218.439 53.2761 218.439 54.639V298.881C218.439 300.244 217.898 301.551 216.934 302.515C215.97 303.479 214.663 304.02 213.3 304.02ZM39.5192 49.68C38.2174 49.6824 36.9699 50.2012 36.0503 51.1225C35.1306 52.0437 34.6142 53.2923 34.6142 54.594V298.881C34.6142 300.183 35.1306 301.431 36.0503 302.353C36.9699 303.274 38.2174 303.793 39.5192 303.795H213.3C214.603 303.793 215.851 303.274 216.772 302.353C217.693 301.432 218.212 300.184 218.214 298.881V54.594C218.212 53.2915 217.693 52.0429 216.772 51.1219C215.851 50.2009 214.603 49.6824 213.3 49.68H39.5192Z" fill="#EBEBEB"/>
<path d="M407.979 304.02H234.189C232.827 304.018 231.521 303.475 230.558 302.512C229.594 301.549 229.052 300.243 229.05 298.881V54.594C229.064 53.2396 229.611 51.9454 230.573 50.9918C231.535 50.0383 232.834 49.5023 234.189 49.5H407.979C409.331 49.5047 410.627 50.042 411.585 50.9956C412.544 51.9491 413.088 53.242 413.1 54.594V298.881C413.1 300.241 412.561 301.545 411.601 302.508C410.641 303.472 409.339 304.015 407.979 304.02ZM234.189 49.68C232.886 49.6824 231.638 50.2009 230.717 51.1219C229.796 52.0429 229.277 53.2915 229.275 54.594V298.881C229.277 300.184 229.796 301.432 230.717 302.353C231.638 303.274 232.886 303.793 234.189 303.795H407.979C409.281 303.793 410.53 303.274 411.451 302.353C412.372 301.432 412.89 300.184 412.893 298.881V54.594C412.89 53.2915 412.372 52.0429 411.451 51.1219C410.53 50.2009 409.281 49.6824 407.979 49.68H234.189Z" fill="#EBEBEB"/>
<path d="M43.9199 344.16H231.858L108.081 268.011L43.9199 344.16Z" fill="#F0F0F0"/>
<path d="M128.61 280.638L108.081 268.011L93.5459 285.264L104.616 282.024L111.078 289.17L116.262 282.024L121.887 284.904L123.93 282.024L131.85 285.417L128.61 280.638Z" fill="#FAFAFA"/>
<path d="M80.0459 344.16H315.927L206.748 219.879L80.0459 344.16Z" fill="#E6E6E6"/>
<path d="M175.014 251.01L206.748 219.879L234.09 251.01L221.148 244.341L216.117 255.042L205.893 247.473L199.845 253.926L195.372 249.579L186.3 256.662L184.383 247.446L175.014 251.01Z" fill="#F0F0F0"/>
<path d="M225.144 253.503L234.603 265.824V256.662L225.144 253.503Z" fill="#F0F0F0"/>
<path d="M176.427 265.113L154.917 282.024L161.451 267.129L176.427 265.113Z" fill="#F0F0F0"/>
<path d="M168.075 344.16H383.715L283.68 251.01L168.075 344.16Z" fill="#F5F5F5"/>
<path d="M257.445 272.151L283.68 251.01L311.742 277.137L295.956 270.225L294.165 280.638L284.589 272.961L271.413 278.424L271.161 270.909L263.232 274.329L263.493 270.567L257.445 272.151Z" fill="#FAFAFA"/>
<path d="M299.844 276.039L305.244 287.757L309.204 282.456L299.844 276.039Z" fill="#FAFAFA"/>
<path d="M235.989 298.737L251.982 292.707L243.378 291.267L235.989 298.737Z" fill="#FAFAFA"/>
<path d="M275.895 344.16H400.104L348.093 280.638L275.895 344.16Z" fill="#F5F5F5"/>
<path d="M334.44 292.662L348.093 280.638L364.833 301.077L348.093 291.816L346.563 297.585L342.342 293.436L334.44 292.662Z" fill="#FAFAFA"/>
<path d="M280.134 189.549C305.931 189.549 326.844 168.636 326.844 142.839C326.844 117.042 305.931 96.129 280.134 96.129C254.337 96.129 233.424 117.042 233.424 142.839C233.424 168.636 254.337 189.549 280.134 189.549Z" fill="#FAFAFA"/>
<path d="M102.807 191.52C111.51 182.133 123.435 175.5 132.723 175.5C138.546 175.5 142.263 178.128 143.595 182.412C147.636 179.973 151.83 178.506 155.43 178.506C161.73 178.506 164.43 183.006 162.819 189.405C166.121 188.022 169.632 187.2 173.205 186.975C179.649 186.687 183.528 189.288 184.284 193.509C185.67 192.819 187.177 192.406 188.721 192.294C192.429 192.132 193.671 194.751 191.493 198.144C191.358 198.36 191.214 198.567 191.07 198.774H88.4702C89.6852 195.399 98.2082 191.7 102.807 191.52Z" fill="#F5F5F5"/>
<path d="M342.585 191.7C346.626 187.344 352.152 184.248 356.463 184.248C359.163 184.248 360.891 185.472 361.503 187.452C363.143 186.381 365.037 185.76 366.993 185.652C369.936 185.652 371.196 187.749 370.431 190.71C371.963 190.071 373.59 189.688 375.246 189.576C378.234 189.45 380.034 190.656 380.385 192.609C381.029 192.292 381.729 192.102 382.446 192.051C384.165 191.97 384.741 193.185 383.733 194.751L383.535 195.048H335.943C336.501 193.5 340.452 191.817 342.585 191.7Z" fill="#FAFAFA"/>
<path d="M296.19 107.748C305.955 97.218 319.329 89.748 329.751 89.748C336.285 89.748 340.452 92.7 341.937 97.497C346.482 94.797 351.18 93.123 355.221 93.123C362.322 93.123 365.364 98.19 363.51 105.345C367.216 103.808 371.151 102.896 375.156 102.645C382.356 102.321 386.748 105.237 387.594 109.98C389.146 109.207 390.833 108.742 392.562 108.612C396.729 108.432 398.115 111.366 395.676 115.182C395.523 115.416 395.361 115.65 395.199 115.875H280.134C281.466 112.095 291.024 107.937 296.19 107.748Z" fill="#F0F0F0"/>
<path d="M64.8 119.439C65.0627 119.407 65.3273 119.392 65.592 119.394C69.246 116.478 73.044 114.615 75.861 114.615C77.895 114.615 79.092 115.587 79.461 117.234C86.265 111.582 93.492 107.91 98.766 107.91C103.023 107.91 105.228 110.295 105.363 114.21C108.783 111.996 112.122 110.664 114.759 110.664C119.385 110.664 120.492 114.768 118.044 120.564C120.574 119.347 123.303 118.597 126.099 118.35C130.86 118.089 133.191 120.447 132.921 124.29C133.989 123.683 135.172 123.305 136.395 123.183C138.996 123.048 139.491 125.163 137.637 127.998H49.5C53.154 123.687 59.814 119.916 64.8 119.439Z" fill="#F5F5F5"/>
<path d="M225 384.804C321.374 384.804 399.501 380.243 399.501 374.616C399.501 368.989 321.374 364.428 225 364.428C128.626 364.428 50.499 368.989 50.499 374.616C50.499 380.243 128.626 384.804 225 384.804Z" fill="#F5F5F5"/>
<path d="M253.386 207.09H220.428C218.903 207.1 217.391 206.797 215.987 206.201C214.583 205.604 213.316 204.727 212.264 203.622C211.212 202.518 210.397 201.21 209.869 199.779C209.342 198.347 209.112 196.823 209.196 195.3L212.094 134.199C212.278 131.035 213.655 128.059 215.946 125.869C218.237 123.68 221.273 122.44 224.442 122.4H257.4C258.925 122.389 260.435 122.691 261.839 123.286C263.242 123.881 264.509 124.758 265.561 125.862C266.612 126.966 267.427 128.274 267.953 129.704C268.48 131.135 268.708 132.659 268.623 134.181L265.725 195.3C265.539 198.461 264.163 201.434 261.874 203.621C259.584 205.808 256.552 207.048 253.386 207.09Z" fill="#0D1F23"/>
<path opacity="0.3" d="M253.386 207.09H220.428C218.903 207.1 217.391 206.797 215.987 206.201C214.583 205.604 213.316 204.727 212.264 203.622C211.212 202.518 210.397 201.21 209.869 199.779C209.342 198.347 209.112 196.823 209.196 195.3L212.094 134.199C212.278 131.035 213.655 128.059 215.946 125.869C218.237 123.68 221.273 122.44 224.442 122.4H257.4C258.925 122.389 260.435 122.691 261.839 123.286C263.242 123.881 264.509 124.758 265.561 125.862C266.612 126.966 267.427 128.274 267.953 129.704C268.48 131.135 268.708 132.659 268.623 134.181L265.725 195.3C265.539 198.461 264.163 201.434 261.874 203.621C259.584 205.808 256.552 207.048 253.386 207.09Z" fill="#404040"/>
<path d="M220.311 111.6H260.244C261.888 111.607 263.463 112.264 264.624 113.427C265.786 114.591 266.44 116.166 266.445 117.81C266.443 119.455 265.789 121.032 264.627 122.195C263.465 123.359 261.889 124.015 260.244 124.02H220.311C218.666 124.015 217.089 123.359 215.925 122.196C214.762 121.032 214.106 119.456 214.101 117.81C214.108 116.165 214.765 114.59 215.928 113.427C217.091 112.264 218.666 111.607 220.311 111.6Z" fill="#0D1F23"/>
<path d="M226.035 74.97C205.956 89.532 206.676 103.212 212.778 109.557C218.394 115.398 230.661 120.186 244.926 114.822C256.383 110.511 247.752 91.944 247.626 87.003C247.5 82.062 226.035 74.97 226.035 74.97Z" fill="#263238"/>
<path d="M220.059 79.848C210.519 84.249 205.659 96.552 205.704 101.925C208.656 93.825 214.2 84.915 221.067 82.44C220.563 81.27 220.059 79.848 220.059 79.848Z" fill="#263238"/>
<path d="M216.378 75.996C215.379 78.849 222.462 81.999 226.566 83.196C230.67 84.393 230.949 76.896 230.949 76.896C230.949 76.896 217.341 73.233 216.378 75.996Z" fill="#0D1F23"/>
<path opacity="0.3" d="M216.378 75.996C215.379 78.849 222.462 81.999 226.566 83.196C230.67 84.393 230.949 76.896 230.949 76.896C230.949 76.896 217.341 73.233 216.378 75.996Z" fill="#404040"/>
<path d="M191.304 356.76C191.916 358.686 190.899 364.707 189.216 369.171L199.917 357.471C199.917 357.471 198.099 354.663 191.304 356.76Z" fill="#0D1F23"/>
<path d="M245.79 357.885C246.411 359.82 247.203 365.535 245.511 369.99C254.133 371.367 253.665 365.49 254.403 358.605C254.403 358.605 252.585 355.797 245.79 357.885Z" fill="#0D1F23"/>
<path d="M199.854 294.606L218.754 298.44C215.685 329.796 201.249 366.354 201.249 366.354H192.942C192.942 366.354 199.557 300.312 199.854 294.606Z" fill="#FF8B7B"/>
<path d="M193.275 358.65C194.388 352.782 195.047 346.836 195.246 340.866C195.192 339.822 193.995 336.933 197.541 338.166C201.087 339.399 211.5 339.39 211.401 341.1C211.302 342.81 209.979 342.576 209.214 345.024C208.449 347.472 203.427 364.725 201.852 367.524C195.678 369.945 191.628 366.345 193.275 358.65Z" fill="#E6E6E6"/>
<path opacity="0.2" d="M199.854 294.606C199.8 295.587 199.557 298.368 199.206 302.283C203.706 302.85 213.813 301.914 218.592 299.673C218.637 299.259 218.682 298.854 218.718 298.44L199.854 294.606Z" fill="#404040"/>
<path d="M245.079 297.522L264.942 298.737C268.011 330.093 257.922 366.354 257.922 366.354H249.615C249.615 366.354 249.615 326.403 245.079 297.522Z" fill="#FF8B7B"/>
<path d="M248.985 360.459C249.194 354.487 248.938 348.508 248.22 342.576C248.013 341.559 246.42 338.886 250.083 339.579C253.746 340.272 264.015 338.679 264.222 340.326C264.429 341.973 263.043 342 262.665 344.538C262.287 347.076 259.965 364.887 258.822 367.938C253.089 371.25 248.535 368.307 248.985 360.459Z" fill="#E6E6E6"/>
<path opacity="0.2" d="M264.942 298.737L245.079 297.522C245.493 300.132 245.871 302.832 246.204 305.622C252.686 305.161 259.071 303.798 265.176 301.572C265.113 300.6 265.032 299.7 264.942 298.737Z" fill="#404040"/>
<path d="M244.917 371.061C249.417 367.776 246.798 358.11 246.798 358.11C249.321 357.524 251.947 357.552 254.457 358.191C257.103 363.6 253.521 372.645 244.917 371.061Z" fill="#0D1F23"/>
<path opacity="0.2" d="M244.917 371.061C249.417 367.776 246.798 358.11 246.798 358.11C249.321 357.524 251.947 357.552 254.457 358.191C257.103 363.6 253.521 372.645 244.917 371.061Z" fill="#404040"/>
<path d="M260.325 373.113H237.465C233.649 373.113 237.393 366.813 244.908 369.018C252.423 371.223 253.701 363.51 252.279 357.507C258.984 355.923 262.179 358.245 262.179 358.245C260.64 363.897 259.641 369.153 260.325 373.113Z" fill="#0D1F23"/>
<path d="M259.902 372.366H236.691C236.318 372.366 236.016 372.668 236.016 373.041V374.094C236.016 374.467 236.318 374.769 236.691 374.769H259.902C260.275 374.769 260.577 374.467 260.577 374.094V373.041C260.577 372.668 260.275 372.366 259.902 372.366Z" fill="#0D1F23"/>
<path opacity="0.5" d="M259.902 372.366H236.691C236.318 372.366 236.016 372.668 236.016 373.041V374.094C236.016 374.467 236.318 374.769 236.691 374.769H259.902C260.275 374.769 260.577 374.467 260.577 374.094V373.041C260.577 372.668 260.275 372.366 259.902 372.366Z" fill="white"/>
<path d="M187.695 369.567C192.6 366.75 192.6 357.12 192.6 357.12C192.6 357.12 194.4 356.22 198.9 357.723C200.988 363.402 196.371 372.006 187.695 369.567Z" fill="#0D1F23"/>
<path opacity="0.2" d="M187.695 369.567C192.6 366.75 192.6 357.12 192.6 357.12C192.6 357.12 194.4 356.22 198.9 357.723C200.988 363.402 196.371 372.006 187.695 369.567Z" fill="#404040"/>
<path d="M203.31 373.158L179.838 370.854C175.914 370.467 180.423 364.554 187.938 367.533C195.453 370.512 198.864 363.033 198.027 356.949C205.074 356.049 206.775 358.551 206.775 358.551C204.588 364.023 203.022 369.153 203.31 373.158Z" fill="#0D1F23"/>
<path d="M202.698 374.778L178.857 372.429C178.766 372.426 178.676 372.404 178.593 372.365C178.51 372.326 178.436 372.271 178.375 372.203C178.313 372.135 178.266 372.056 178.236 371.969C178.206 371.883 178.194 371.791 178.2 371.7L178.317 370.638C178.338 370.458 178.429 370.293 178.57 370.18C178.712 370.067 178.893 370.015 179.073 370.035L202.914 372.384C203.093 372.4 203.257 372.485 203.374 372.622C203.49 372.758 203.548 372.934 203.535 373.113L203.418 374.175C203.398 374.348 203.312 374.507 203.178 374.62C203.044 374.732 202.873 374.788 202.698 374.778Z" fill="#0D1F23"/>
<path opacity="0.5" d="M202.698 374.778L178.857 372.429C178.766 372.426 178.676 372.404 178.593 372.365C178.51 372.326 178.436 372.271 178.375 372.203C178.313 372.135 178.266 372.056 178.236 371.969C178.206 371.883 178.194 371.791 178.2 371.7L178.317 370.638C178.338 370.458 178.429 370.293 178.57 370.18C178.712 370.067 178.893 370.015 179.073 370.035L202.914 372.384C203.093 372.4 203.257 372.485 203.374 372.622C203.49 372.758 203.548 372.934 203.535 373.113L203.418 374.175C203.398 374.348 203.312 374.507 203.178 374.62C203.044 374.732 202.873 374.788 202.698 374.778Z" fill="white"/>
<path d="M230.076 236.988C227.511 245.403 224.298 254.655 220.248 264.636C220.944 276.252 220.547 287.907 219.06 299.448C212.994 301.635 197.685 300.348 196.974 298.485C197.874 286.236 198.774 274.095 199.566 264.636C198.99 232.236 207.207 181.152 207.207 181.152H239.886C239.886 181.152 240.705 201.942 230.076 236.988Z" fill="#0D1F23"/>
<path opacity="0.2" d="M234.072 222.381C232.452 229.032 230.364 236.412 227.709 244.431C226.926 228.231 222.561 206.631 222.408 205.893L234.072 222.381Z" fill="#404040"/>
<path d="M265.5 301.635C255.915 303.651 242.856 302.832 242.1 300.78C241.686 289.224 239.22 277.731 237.006 267.084C235.278 258.822 232.794 248.076 230.13 236.988C223.659 210.069 216.162 181.188 216.162 181.188H244.962C244.962 181.188 263.52 198 257.634 268.398C262.8 277.551 264.852 289.557 265.5 301.635Z" fill="#0D1F23"/>
<path d="M219.798 134.406C219.6 135.189 219.438 135.765 219.258 136.431C219.078 137.097 218.889 137.691 218.691 138.312C218.304 139.554 217.89 140.787 217.44 142.002C216.54 144.441 215.586 146.817 214.542 149.202C212.411 153.958 209.908 158.539 207.054 162.9C206.307 163.989 205.56 165.069 204.777 166.131L203.562 167.706C203.063 168.401 202.519 169.062 201.933 169.686C200.989 170.665 199.872 171.461 198.639 172.035C197.396 172.579 196.062 172.885 194.706 172.935C192.615 173.012 190.536 172.58 188.649 171.675C185.948 170.351 183.508 168.549 181.449 166.356C180.491 165.395 179.589 164.379 178.749 163.314C177.908 162.257 177.129 161.151 176.418 160.002C175.998 159.335 175.819 158.544 175.91 157.761C176.002 156.978 176.358 156.25 176.92 155.697C177.482 155.144 178.217 154.801 179.001 154.722C179.785 154.644 180.573 154.837 181.233 155.268L181.494 155.439L184.338 157.302C185.301 157.914 186.255 158.508 187.209 159.039C188.849 160.042 190.63 160.794 192.492 161.271C193.185 161.388 193.698 161.325 193.599 161.199C193.46 161.146 193.306 161.146 193.167 161.199C192.969 161.244 192.816 161.334 192.762 161.334C192.573 161.514 193.05 160.812 193.32 160.38L194.22 158.967L195.93 156.06C198.143 152.075 200.114 147.96 201.834 143.739C202.704 141.615 203.526 139.473 204.3 137.313C204.678 136.224 205.056 135.144 205.416 134.064L205.938 132.453L206.406 130.959L206.487 130.698C207.036 129.004 208.219 127.588 209.788 126.747C211.357 125.906 213.191 125.704 214.905 126.185C216.62 126.665 218.082 127.79 218.986 129.324C219.889 130.858 220.164 132.683 219.753 134.415L219.798 134.406Z" fill="#FF8B7B"/>
<path d="M213.363 122.4C206.325 124.398 203.076 130.824 197.163 144.162C199.233 148.752 210.771 152.262 210.771 152.262C210.771 152.262 226.017 130.59 213.363 122.4Z" fill="#263238"/>
<path d="M203.706 134.379C203.493 139.972 203.58 145.572 203.967 151.155C204.264 158.436 207.873 169.425 207.81 181.422C211.545 184.122 232.686 183.564 245.61 181.899C244.827 171.567 245.412 155.448 252.414 132.21C254.034 126.81 250.416 121.644 244.638 121.095C243.099 120.951 241.461 120.825 239.778 120.744C233.884 120.347 227.97 120.347 222.075 120.744C220.158 120.906 218.16 121.131 216.252 121.383C209.349 122.292 203.922 127.926 203.706 134.379Z" fill="#263238"/>
<path d="M233.019 137.349C227.232 139.554 216.648 139.239 209.232 136.512V138.366C221.121 144.153 233.019 139.401 233.019 139.401C233.019 139.401 235.143 139.185 233.019 137.349Z" fill="#0D1F23"/>
<path d="M214.992 137.034C214.002 137.313 213.264 141.174 215.1 141.723C216.936 142.272 222.138 143.136 225.279 142.119C226.998 141.57 227.178 138.105 225.738 137.619C223.038 136.566 216.765 136.548 214.992 137.034Z" fill="#0D1F23"/>
<path d="M238.5 100.8C236.961 106.497 235.071 116.928 238.77 120.735C238.77 120.735 236.394 126.819 222.858 126C212.958 125.397 221.058 120.735 221.058 120.735C227.52 119.214 227.709 114.507 226.935 110.079L238.5 100.8Z" fill="#FF8B7B"/>
<path opacity="0.2" d="M233.802 104.625L226.962 110.106C227.156 111.145 227.259 112.199 227.268 113.256C229.725 112.905 233.253 110.241 233.703 107.694C233.919 106.685 233.952 105.646 233.802 104.625Z" fill="#404040"/>
<path d="M243.369 89.406C241.641 98.604 241.11 102.519 235.863 106.929C227.97 113.562 217.125 110.061 216.063 100.683C215.163 92.241 218.115 78.624 227.583 75.591C237.051 72.558 245.097 80.217 243.369 89.406Z" fill="#FF8B7B"/>
<path d="M236.403 85.329C233.514 89.154 234.819 94.896 240.714 95.409C246.609 95.922 247.338 88.767 246.402 86.202C245.466 83.637 236.403 85.329 236.403 85.329Z" fill="#263238"/>
<path d="M226.962 75.087C219.42 78.363 223.632 81.306 225.846 82.494C225.959 81.6314 226.202 80.7909 226.566 80.001C226.566 80.001 230.76 86.553 237.879 87.282C246.879 88.182 245.61 84.951 245.61 84.951C245.61 84.951 240.885 71.199 226.962 75.087Z" fill="#263238"/>
<path d="M227.7 74.502C223.524 75.015 216.9 76.572 216.351 81.171C218.421 80.01 223.551 79.659 223.551 79.659L227.7 74.502Z" fill="#263238"/>
<path d="M240.795 90.828C238.455 92.106 234.927 94.554 235.656 97.389C236.61 96.228 239.517 94.833 239.517 94.833L240.795 90.828Z" fill="#263238"/>
<path d="M228.807 90.945C228.69 91.719 228.204 92.322 227.7 92.286C227.196 92.25 226.89 91.584 226.998 90.81C227.106 90.036 227.61 89.433 228.105 89.469C228.6 89.505 228.915 90.162 228.807 90.945Z" fill="#263238"/>
<path d="M219.411 90.387C219.303 91.161 218.808 91.764 218.313 91.728C217.818 91.692 217.494 91.035 217.611 90.252C217.728 89.469 218.214 88.875 218.718 88.911C219.222 88.947 219.528 89.613 219.411 90.387Z" fill="#263238"/>
<path d="M218.925 88.974L217.179 88.299C217.179 88.299 217.908 89.829 218.925 88.974Z" fill="#263238"/>
<path d="M221.841 91.854C220.906 93.5838 219.754 95.1868 218.412 96.624C219.312 97.65 221.058 97.344 221.058 97.344L221.841 91.854Z" fill="#FF5652"/>
<path d="M225 100.539C224.569 100.58 224.135 100.58 223.704 100.539C223.675 100.537 223.647 100.529 223.621 100.515C223.596 100.501 223.573 100.483 223.555 100.46C223.537 100.437 223.525 100.41 223.518 100.382C223.511 100.354 223.51 100.325 223.515 100.296C223.522 100.235 223.552 100.178 223.598 100.138C223.645 100.098 223.705 100.077 223.767 100.08C224.743 100.158 225.724 100.015 226.638 99.6615C227.551 99.3078 228.372 98.7525 229.041 98.037C229.084 97.9978 229.14 97.9761 229.198 97.9761C229.257 97.9761 229.313 97.9978 229.356 98.037C229.378 98.058 229.395 98.0832 229.407 98.111C229.419 98.1388 229.425 98.1688 229.425 98.199C229.425 98.2293 229.419 98.2592 229.407 98.287C229.395 98.3149 229.378 98.34 229.356 98.361C228.221 99.5975 226.67 100.373 225 100.539Z" fill="#263238"/>
<path d="M244.224 97.677C243.784 98.4549 243.185 99.1321 242.468 99.6652C241.75 100.198 240.929 100.576 240.057 100.773C237.879 101.169 237.15 98.649 238.059 96.273C238.869 94.131 240.984 91.332 243.027 92.034C245.07 92.736 245.475 95.616 244.224 97.677Z" fill="#FF8B7B"/>
<path d="M231.246 86.994C231.187 86.9873 231.129 86.9677 231.078 86.9366C231.027 86.9056 230.983 86.8637 230.949 86.814C230.653 86.3428 230.245 85.9523 229.761 85.6775C229.278 85.4026 228.733 85.252 228.177 85.239C228.119 85.2427 228.06 85.2343 228.005 85.2142C227.95 85.194 227.899 85.1626 227.857 85.122C227.815 85.0814 227.781 85.0324 227.759 84.9782C227.737 84.9239 227.726 84.8656 227.727 84.807C227.734 84.6826 227.786 84.565 227.874 84.4769C227.962 84.3888 228.08 84.3365 228.204 84.33C228.907 84.3352 229.598 84.5167 230.213 84.8579C230.827 85.1991 231.347 85.6891 231.723 86.283C231.768 86.3602 231.79 86.4484 231.787 86.5374C231.784 86.6265 231.756 86.713 231.706 86.787C231.656 86.861 231.587 86.9197 231.506 86.9563C231.424 86.9928 231.335 87.0059 231.246 86.994Z" fill="#263238"/>
<path d="M217.629 84.339C217.572 84.3432 217.515 84.3359 217.461 84.3173C217.407 84.2987 217.357 84.2694 217.314 84.231C217.272 84.1892 217.239 84.1394 217.216 84.0846C217.193 84.0297 217.181 83.9709 217.181 83.9115C217.181 83.8521 217.193 83.7933 217.216 83.7384C217.239 83.6836 217.272 83.6338 217.314 83.592C217.791 83.0347 218.387 82.5929 219.059 82.2998C219.731 82.0067 220.461 81.87 221.193 81.9C221.251 81.9075 221.306 81.9268 221.356 81.9566C221.406 81.9865 221.449 82.0263 221.483 82.0736C221.517 82.1209 221.54 82.1746 221.553 82.2315C221.565 82.2883 221.565 82.3471 221.553 82.404C221.531 82.5256 221.465 82.6346 221.366 82.7095C221.268 82.7845 221.145 82.82 221.022 82.809C220.439 82.7948 219.86 82.9138 219.33 83.1571C218.8 83.4005 218.332 83.7616 217.962 84.213C217.869 84.2927 217.752 84.3373 217.629 84.339Z" fill="#263238"/>
<path d="M228.321 89.523L226.566 88.848C226.566 88.848 227.295 90.378 228.321 89.523Z" fill="#263238"/>
<path d="M174.456 147.834L177.327 148.275C177.859 148.353 178.364 148.558 178.801 148.871C179.238 149.184 179.593 149.597 179.838 150.075L182.142 154.629C182.606 155.525 182.848 156.518 182.848 157.527C182.848 158.536 182.606 159.529 182.142 160.425L181.557 161.541C176.733 161.145 171.819 157.158 171.819 157.158L170.298 156.186C169.982 155.99 169.708 155.734 169.491 155.432C169.275 155.129 169.12 154.787 169.037 154.425C168.953 154.063 168.942 153.687 169.004 153.321C169.066 152.954 169.2 152.604 169.398 152.289L171.297 149.238C171.638 148.73 172.116 148.329 172.674 148.081C173.233 147.833 173.851 147.747 174.456 147.834Z" fill="#FF8B7B"/>
<path d="M207.135 183.933C220.144 185.364 233.273 185.337 246.276 183.852C246.41 183.829 246.537 183.776 246.648 183.697C246.759 183.618 246.85 183.514 246.915 183.395C246.98 183.275 247.017 183.142 247.023 183.007C247.029 182.871 247.005 182.735 246.951 182.61C246.636 181.863 246.312 181.107 246.006 180.36C245.942 180.192 245.824 180.05 245.671 179.956C245.519 179.862 245.339 179.82 245.16 179.838C232.655 181.215 220.036 181.215 207.531 179.838C207.308 179.823 207.088 179.897 206.92 180.044C206.751 180.191 206.647 180.398 206.631 180.621C206.559 181.404 206.478 182.178 206.397 182.961C206.376 183.186 206.44 183.411 206.576 183.591C206.713 183.771 206.913 183.893 207.135 183.933Z" fill="#263238"/>
<path d="M207.153 174.06C220.094 175.505 233.155 175.505 246.096 174.06C246.663 173.997 246.888 173.376 246.537 172.836C246.069 172.098 246.861 171.198 246.402 170.451C246.304 170.288 246.163 170.154 245.995 170.064C245.827 169.973 245.638 169.93 245.448 169.938C232.584 171.298 219.612 171.298 206.748 169.938C206.643 169.923 206.536 169.932 206.436 169.966C206.335 169.999 206.244 170.056 206.17 170.131C206.095 170.207 206.039 170.298 206.007 170.399C205.975 170.5 205.966 170.607 205.983 170.712L206.199 173.016C206.211 173.274 206.313 173.52 206.488 173.71C206.662 173.901 206.897 174.025 207.153 174.06Z" fill="#0D1F23"/>
<path d="M216.315 189H215.847C215.572 188.988 215.303 188.92 215.055 188.801C214.807 188.682 214.585 188.514 214.404 188.307C214.222 188.1 214.084 187.859 213.998 187.598C213.912 187.336 213.88 187.06 213.903 186.786C213.723 182.196 220.95 172.089 226.026 171.18C226.078 171.169 226.131 171.175 226.179 171.198C226.226 171.221 226.264 171.259 226.287 171.306C226.317 171.346 226.333 171.395 226.333 171.445C226.333 171.496 226.317 171.545 226.287 171.585C223.2 174.852 222.03 179.028 221.094 182.385C220.023 186.021 219.195 189 216.315 189ZM225.315 171.846C220.572 173.529 214.218 182.646 214.371 186.741C214.348 186.957 214.369 187.175 214.433 187.382C214.498 187.589 214.604 187.78 214.746 187.944C214.888 188.108 215.063 188.241 215.258 188.334C215.454 188.428 215.667 188.48 215.883 188.487C218.718 188.775 219.483 186.03 220.563 182.187C221.481 178.992 222.579 175.059 225.333 171.819L225.315 171.846Z" fill="white"/>
<path d="M287.478 366.354L285.282 367.011L230.949 190.494L235.026 189.261L287.478 366.354Z" fill="#0D1F23"/>
<path opacity="0.7" d="M287.478 366.354L285.282 367.011L230.949 190.494L235.026 189.261L287.478 366.354Z" fill="white"/>
<path d="M230.823 171.135L230.679 170.676C230.642 170.554 230.581 170.44 230.5 170.341C230.419 170.242 230.319 170.16 230.206 170.1C230.093 170.04 229.97 170.002 229.842 169.99C229.715 169.978 229.587 169.991 229.464 170.028L224.964 171.396C224.717 171.471 224.509 171.641 224.386 171.868C224.263 172.096 224.234 172.363 224.307 172.611L224.451 173.07C224.488 173.192 224.549 173.306 224.63 173.405C224.711 173.504 224.811 173.586 224.924 173.646C225.037 173.706 225.161 173.744 225.288 173.756C225.415 173.768 225.544 173.755 225.666 173.718L225.837 173.673C225.833 173.691 225.833 173.709 225.837 173.727L230.688 189.765L230.526 189.819C230.28 189.896 230.074 190.066 229.953 190.294C229.832 190.521 229.805 190.787 229.878 191.034L230.013 191.493C230.09 191.739 230.261 191.945 230.488 192.066C230.715 192.187 230.981 192.214 231.228 192.141L235.728 190.773C235.851 190.736 235.965 190.675 236.064 190.594C236.162 190.513 236.244 190.413 236.304 190.3C236.365 190.187 236.402 190.063 236.414 189.936C236.427 189.809 236.414 189.68 236.376 189.558L236.241 189.099C236.166 188.851 235.997 188.643 235.769 188.52C235.541 188.397 235.274 188.369 235.026 188.442L234.837 188.505L229.977 172.458C229.973 172.44 229.973 172.422 229.977 172.404L230.166 172.35C230.414 172.275 230.622 172.105 230.745 171.878C230.868 171.65 230.896 171.383 230.823 171.135Z" fill="#0D1F23"/>
<path opacity="0.3" d="M230.823 171.135L230.679 170.676C230.642 170.554 230.581 170.44 230.5 170.341C230.419 170.242 230.319 170.16 230.206 170.1C230.093 170.04 229.97 170.002 229.842 169.99C229.715 169.978 229.587 169.991 229.464 170.028L224.964 171.396C224.717 171.471 224.509 171.641 224.386 171.868C224.263 172.096 224.234 172.363 224.307 172.611L224.451 173.07C224.488 173.192 224.549 173.306 224.63 173.405C224.711 173.504 224.811 173.586 224.924 173.646C225.037 173.706 225.161 173.744 225.288 173.756C225.415 173.768 225.544 173.755 225.666 173.718L225.837 173.673C225.833 173.691 225.833 173.709 225.837 173.727L230.688 189.765L230.526 189.819C230.28 189.896 230.074 190.066 229.953 190.294C229.832 190.521 229.805 190.787 229.878 191.034L230.013 191.493C230.09 191.739 230.261 191.945 230.488 192.066C230.715 192.187 230.981 192.214 231.228 192.141L235.728 190.773C235.851 190.736 235.965 190.675 236.064 190.594C236.162 190.513 236.244 190.413 236.304 190.3C236.365 190.187 236.402 190.063 236.414 189.936C236.427 189.809 236.414 189.68 236.376 189.558L236.241 189.099C236.166 188.851 235.997 188.643 235.769 188.52C235.541 188.397 235.274 188.369 235.026 188.442L234.837 188.505L229.977 172.458C229.973 172.44 229.973 172.422 229.977 172.404L230.166 172.35C230.414 172.275 230.622 172.105 230.745 171.878C230.868 171.65 230.896 171.383 230.823 171.135Z" fill="#404040"/>
<path d="M161.865 157.392C161.283 157.382 160.711 157.231 160.2 156.951C159.949 156.838 159.722 156.675 159.535 156.473C159.347 156.271 159.203 156.032 159.11 155.773C159.016 155.513 158.976 155.237 158.992 154.962C159.008 154.687 159.079 154.417 159.201 154.17C160.713 149.832 171.135 143.073 176.193 144.081C176.244 144.09 176.29 144.115 176.326 144.152C176.361 144.189 176.384 144.237 176.391 144.288C176.396 144.34 176.385 144.392 176.359 144.437C176.333 144.482 176.294 144.518 176.247 144.54C172.188 146.448 169.569 149.94 167.472 152.685C165.528 155.25 163.917 157.392 161.865 157.392ZM175.095 144.468C170.028 144.468 161.001 150.507 159.669 154.368C159.567 154.559 159.505 154.769 159.487 154.985C159.47 155.201 159.498 155.418 159.569 155.623C159.64 155.828 159.753 156.015 159.9 156.174C160.048 156.333 160.226 156.46 160.425 156.546C162.972 157.86 164.691 155.583 167.076 152.424C169.083 149.778 171.576 146.52 175.293 144.504L175.095 144.468Z" fill="#E0E0E0"/>
<path d="M162.045 348.255L159.759 348.075L173.7 163.908L177.939 164.25L162.045 348.255Z" fill="#0D1F23"/>
<path opacity="0.7" d="M162.045 348.255L159.759 348.075L173.7 163.908L177.939 164.25L162.045 348.255Z" fill="white"/>
<path d="M180.648 145.8L180.693 145.323C180.711 145.065 180.626 144.81 180.458 144.613C180.29 144.416 180.051 144.293 179.793 144.27L175.077 143.892C174.818 143.872 174.562 143.956 174.365 144.124C174.167 144.293 174.045 144.533 174.024 144.792V145.278C174.014 145.406 174.03 145.534 174.07 145.656C174.11 145.777 174.174 145.89 174.257 145.987C174.341 146.084 174.443 146.164 174.557 146.221C174.672 146.279 174.797 146.313 174.924 146.322H175.104C175.104 146.322 175.104 146.322 175.104 146.376L173.7 163.125H173.529C173.402 163.115 173.273 163.131 173.152 163.171C173.03 163.211 172.917 163.274 172.82 163.358C172.723 163.442 172.644 163.544 172.586 163.658C172.529 163.772 172.494 163.897 172.485 164.025V164.502C172.465 164.761 172.549 165.017 172.718 165.214C172.886 165.412 173.126 165.534 173.385 165.555L178.101 165.933C178.36 165.953 178.616 165.869 178.814 165.701C179.011 165.532 179.134 165.292 179.154 165.033V164.556C179.174 164.297 179.091 164.041 178.922 163.843C178.753 163.646 178.513 163.524 178.254 163.503H178.056L179.397 146.799V146.7H179.604C179.732 146.71 179.86 146.694 179.982 146.654C180.104 146.614 180.216 146.551 180.313 146.467C180.41 146.383 180.49 146.281 180.547 146.167C180.605 146.052 180.639 145.928 180.648 145.8Z" fill="#0D1F23"/>
<path opacity="0.3" d="M180.648 145.8L180.693 145.323C180.711 145.065 180.626 144.81 180.458 144.613C180.29 144.416 180.051 144.293 179.793 144.27L175.077 143.892C174.818 143.872 174.562 143.956 174.365 144.124C174.167 144.293 174.045 144.533 174.024 144.792V145.278C174.014 145.406 174.03 145.534 174.07 145.656C174.11 145.777 174.174 145.89 174.257 145.987C174.341 146.084 174.443 146.164 174.557 146.221C174.672 146.279 174.797 146.313 174.924 146.322H175.104C175.104 146.322 175.104 146.322 175.104 146.376L173.7 163.125H173.529C173.402 163.115 173.273 163.131 173.152 163.171C173.03 163.211 172.917 163.274 172.82 163.358C172.723 163.442 172.644 163.544 172.586 163.658C172.529 163.772 172.494 163.897 172.485 164.025V164.502C172.465 164.761 172.549 165.017 172.718 165.214C172.886 165.412 173.126 165.534 173.385 165.555L178.101 165.933C178.36 165.953 178.616 165.869 178.814 165.701C179.011 165.532 179.134 165.292 179.154 165.033V164.556C179.174 164.297 179.091 164.041 178.922 163.843C178.753 163.646 178.513 163.524 178.254 163.503H178.056L179.397 146.799V146.7H179.604C179.732 146.71 179.86 146.694 179.982 146.654C180.104 146.614 180.216 146.551 180.313 146.467C180.41 146.383 180.49 146.281 180.547 146.167C180.605 146.052 180.639 145.928 180.648 145.8Z" fill="#404040"/>
<path d="M182.826 156.78C183.294 153.333 180.495 150.48 179.892 147.708C179.784 147.249 179.082 147.222 178.785 147.582C178.209 148.275 178.632 150.453 178.911 151.056C179.316 151.893 175.185 155.304 180.414 158.463C181.373 158.164 182.215 157.576 182.826 156.78Z" fill="#FF8B7B"/>
<path d="M225.414 178.596L227.097 176.229C227.41 175.79 227.823 175.432 228.302 175.185C228.781 174.938 229.312 174.808 229.851 174.807H234.963C235.971 174.805 236.965 175.046 237.86 175.508C238.756 175.97 239.528 176.64 240.111 177.462L240.84 178.497C238.311 182.61 232.542 185.202 232.542 185.202L230.985 186.102C230.671 186.301 230.32 186.436 229.953 186.499C229.587 186.562 229.211 186.551 228.848 186.467C228.486 186.384 228.143 186.229 227.841 186.011C227.539 185.794 227.283 185.519 227.088 185.202L225.216 182.133C224.903 181.587 224.756 180.963 224.791 180.335C224.826 179.707 225.042 179.103 225.414 178.596Z" fill="#FF8B7B"/>
<path d="M256.14 131.175C256.482 131.931 256.725 132.471 256.986 133.101C257.247 133.731 257.472 134.316 257.706 134.901C258.174 136.116 258.606 137.34 258.966 138.564C259.737 141.024 260.377 143.524 260.883 146.052C261.144 147.312 261.36 148.599 261.567 149.877C261.774 151.155 261.909 152.46 261.999 153.774C262.239 156.413 262.3 159.065 262.179 161.712V162.144C262.171 162.448 262.128 162.75 262.053 163.044C261.593 164.815 260.788 166.479 259.686 167.94C258.827 169.076 257.86 170.125 256.797 171.072C255.861 171.922 254.869 172.706 253.827 173.421C252.828 174.114 251.838 174.762 250.821 175.338C248.843 176.476 246.796 177.489 244.692 178.371C242.615 179.256 240.484 180.008 238.311 180.621C237.536 180.843 236.707 180.787 235.969 180.463C235.231 180.139 234.629 179.567 234.268 178.846C233.907 178.125 233.81 177.301 233.992 176.515C234.175 175.73 234.627 175.033 235.269 174.546L235.422 174.438C236.979 173.232 238.671 171.981 240.237 170.73C241.803 169.479 243.369 168.21 244.737 166.905C246.09 165.72 247.339 164.423 248.472 163.026C248.914 162.483 249.297 161.895 249.615 161.271C249.858 160.767 249.921 160.371 249.84 160.416L249.705 161.73C249.525 159.633 249.309 157.545 248.922 155.43C248.535 153.315 248.094 151.209 247.545 149.13C246.996 147.051 246.393 144.927 245.7 142.83C245.358 141.786 244.989 140.76 244.629 139.743L244.071 138.231L243.549 136.863L243.414 136.512C242.798 134.846 242.848 133.006 243.555 131.377C244.262 129.747 245.571 128.453 247.209 127.765C248.846 127.077 250.687 127.047 252.345 127.682C254.004 128.318 255.354 129.569 256.113 131.175H256.14Z" fill="#FF8B7B"/>
<path d="M244.98 121.185C251.325 122.166 253.863 124.092 259.047 136.845C256.698 141.597 245.682 146.151 245.682 146.151C245.682 146.151 238.383 129.6 244.98 121.185Z" fill="#263238"/>
<path d="M239.076 119.979C235.287 120.393 230.76 132.147 231.876 143.883C232.992 155.619 244.584 162.648 246.375 160.47C246.628 159.668 246.735 158.826 246.69 157.986C245.295 157.491 239.985 153.648 239.22 145.575C238.455 137.502 246.87 122.355 246.375 121.185C245.88 120.015 241.344 119.7 239.076 119.979Z" fill="#0D1F23"/>
<path d="M220.446 120.447C216.108 120.636 213.408 121.167 212.427 122.418C211.446 123.669 200.907 135.792 203.589 153.702C203.85 155.43 204.606 160.065 205.236 160.245C206.136 160.488 204.615 149.913 210.456 137.349C216.297 124.785 221.715 121.041 220.446 120.447Z" fill="#0D1F23"/>
<path d="M222.921 74.97C231.138 77.031 241.821 83.592 248.121 89.712C249.3 86.454 250.2 78.3 242.217 73.602C239.263 71.7816 235.811 70.9343 232.349 71.1798C228.887 71.4252 225.59 72.7509 222.921 74.97Z" fill="#0D1F23"/>
<path d="M241.92 84.546C234.072 84.132 232.668 81.054 229.761 78.426C227.915 76.927 225.721 75.9183 223.381 75.4935C221.042 75.0687 218.633 75.2415 216.378 75.996C216.702 73.926 228.654 71.217 241.92 84.546Z" fill="#0D1F23"/>
</svg>
