<svg width="35" height="40" viewBox="0 0 35 40" fill="none" xmlns="http://www.w3.org/2000/svg">
<g clip-path="url(#clip0_47_105)">
<path d="M35.0684 6.79688C35.0684 9.71517 35.0684 12.6335 35.0364 15.5902C25.1804 15.629 15.3564 15.6296 5.53239 15.6295C3.71105 15.6295 1.8897 15.6266 0.0683594 15.625C0.0683594 12.7067 0.0683594 9.7884 0.099985 6.83349C11.7772 6.79688 23.4228 6.79688 35.0684 6.79688Z" fill="#338AF3"/>
<path d="M0.0683594 33.3594C0.0683594 30.4411 0.0683594 27.5228 0.100308 24.566C9.95628 24.5273 19.7803 24.5267 29.6043 24.5268C31.4257 24.5268 33.247 24.5297 35.0684 24.5312C35.0684 27.4495 35.0684 30.3678 35.0367 33.3228C23.3595 33.3594 11.7139 33.3594 0.0683594 33.3594Z" fill="#338AF3"/>
<path d="M35.0684 24.4947C33.247 24.5297 31.4257 24.5268 29.6043 24.5268C19.7803 24.5267 9.95628 24.5273 0.100308 24.5294C0.0683594 21.5869 0.0683594 18.6425 0.0683594 15.6616C1.8897 15.6266 3.71105 15.6295 5.53239 15.6295C15.3564 15.6296 25.1804 15.629 35.0364 15.6268C35.0684 18.5694 35.0684 21.5138 35.0684 24.4947ZM15.9763 21.8074C16.1523 21.7758 16.3282 21.7441 16.5386 21.7064C16.5971 22.1669 16.651 22.5919 16.705 23.0169C16.7357 23.0307 16.7664 23.0444 16.7971 23.0582C17.0532 22.7364 17.3094 22.4146 17.6346 22.006C17.9173 22.3629 18.1692 22.6807 18.4313 23.0116C18.4894 22.5647 18.5438 22.1456 18.602 21.6977C19.0156 21.7786 19.385 21.8508 19.8049 21.933C19.5976 21.4816 19.4207 21.0964 19.2347 20.6916C19.6112 20.4845 19.9442 20.3014 20.3438 20.0816C19.9368 19.8518 19.598 19.6606 19.2318 19.4538C19.4239 19.0432 19.598 18.6711 19.8078 18.2227C19.3604 18.3101 18.9893 18.3826 18.5969 18.4593C18.5371 17.9794 18.4852 17.5635 18.4232 17.0662C18.1096 17.4415 17.8477 17.7547 17.5321 18.1324C17.2389 17.7803 16.979 17.4683 16.7052 17.1396C16.6489 17.5817 16.5955 18.0006 16.5373 18.4569C16.1269 18.375 15.7546 18.3007 15.3225 18.2145C15.5329 18.6626 15.7131 19.0463 15.906 19.4572C15.5315 19.6707 15.1959 19.862 14.8112 20.0814C15.2118 20.307 15.5442 20.4941 15.9047 20.6971C15.7084 21.1192 15.5306 21.5014 15.3244 21.9447C15.5677 21.8935 15.7441 21.8563 15.9763 21.8074Z" fill="#F0F0F0"/>
<path d="M0.0683594 6.73828C11.7139 6.71875 23.3595 6.71875 35.0367 6.71875C35.0684 6.71875 35.0684 6.75781 35.0684 6.77734C23.4228 6.79688 11.7772 6.79688 0.099985 6.79688C0.0683594 6.79688 0.0683594 6.75781 0.0683594 6.73828Z" fill="#62A3F2"/>
<path d="M35.0684 33.418C23.4228 33.4375 11.7772 33.4375 0.099985 33.4375C0.0683594 33.4375 0.0683594 33.3984 0.0683594 33.3789C11.7139 33.3594 23.3595 33.3594 35.0367 33.3594C35.0684 33.3594 35.0684 33.3984 35.0684 33.418Z" fill="#62A3F2"/>
<path d="M15.9483 21.8132C15.744 21.8563 15.5676 21.8935 15.3243 21.9447C15.5304 21.5014 15.7082 21.1192 15.9045 20.6971C15.5441 20.4941 15.2117 20.307 14.811 20.0814C15.1958 19.862 15.5314 19.6707 15.9059 19.4572C15.7129 19.0463 15.5328 18.6626 15.3224 18.2145C15.7545 18.3007 16.1268 18.375 16.5372 18.4569C16.5954 18.0006 16.6487 17.5817 16.7051 17.1396C16.9789 17.4683 17.2388 17.7803 17.532 18.1324C17.8476 17.7547 18.1094 17.4415 18.4231 17.0662C18.4851 17.5635 18.537 17.9794 18.5968 18.4593C18.9892 18.3826 19.3602 18.3101 19.8077 18.2227C19.5979 18.6711 19.4238 19.0432 19.2317 19.4538C19.5979 19.6606 19.9367 19.8518 20.3437 20.0816C19.9441 20.3014 19.6111 20.4845 19.2346 20.6916C19.4205 21.0964 19.5974 21.4816 19.8048 21.933C19.3848 21.8508 19.0155 21.7786 18.6019 21.6977C18.5437 22.1456 18.4893 22.5647 18.4312 23.0116C18.169 22.6807 17.9172 22.3629 17.6345 22.006C17.3092 22.4146 17.0531 22.7364 16.797 23.0582C16.7663 23.0444 16.7356 23.0307 16.7049 23.0169C16.6509 22.5919 16.597 22.1669 16.5385 21.7064C16.3281 21.7441 16.1521 21.7758 15.9483 21.8132Z" fill="#FFDA47"/>
</g>
<defs>
<clipPath id="clip0_47_105">
<rect width="35" height="40" fill="white"/>
</clipPath>
</defs>
</svg>
