<svg width="35" height="40" viewBox="0 0 35 40" fill="none" xmlns="http://www.w3.org/2000/svg">
<path d="M9.10388 9.38824C9.16057 9.38382 9.21726 9.37552 9.27394 9.37552C14.8395 9.37605 20.4051 9.3772 26.0039 9.41897C26.0382 15.3268 26.0398 21.194 26.0401 27.0612C26.0401 28.297 26.0355 29.5328 26.033 30.7686C25.9762 30.7728 25.9195 30.7808 25.8628 30.7808C20.2972 30.7802 14.7315 30.779 9.1327 30.7373C9.09847 24.7515 9.09696 18.8065 9.09668 12.8614C9.09663 11.7037 9.10136 10.546 9.10388 9.38824ZM16.97 13.4939C16.8214 13.8288 16.6755 14.1652 16.5235 14.498C16.3444 14.89 16.2217 14.9338 15.8708 14.7275C15.626 14.5835 15.386 14.4288 15.0759 14.2368C15.154 14.7404 15.2175 15.1462 15.2799 15.5522C15.4133 16.4199 15.5531 17.2865 15.6716 18.1569C15.6893 18.2867 15.6055 18.4346 15.5686 18.5741C15.4492 18.5238 15.323 18.4875 15.2127 18.4181C15.1477 18.3772 15.1087 18.2831 15.0567 18.2142C14.6522 17.6774 14.2473 17.1409 13.8022 16.5508C13.7235 16.8726 13.6623 17.1172 13.6039 17.3627C13.5377 17.6411 13.4249 17.7753 13.1361 17.689C12.6044 17.5303 12.062 17.4182 11.4833 17.2767C11.6645 18.0606 11.83 18.796 12.0062 19.5281C12.0709 19.7969 12.022 19.9754 11.7827 20.0848C11.6009 20.1678 11.4307 20.2842 11.228 20.4017C11.3984 20.5713 11.5255 20.7008 11.6554 20.8267C12.4887 21.6342 13.3198 22.4448 14.1582 23.2455C14.3867 23.4637 14.4726 23.6956 14.3592 24.0287C14.2712 24.2873 14.2221 24.5631 14.1497 24.8556C14.2282 24.8556 14.2722 24.8606 14.3151 24.8549C15.116 24.7479 15.9154 24.6237 16.718 24.5363C17.4676 24.4546 17.4493 24.4702 17.4007 25.3398C17.3421 26.3864 17.3214 27.4358 17.2843 28.4835C17.4825 28.4835 17.6332 28.4835 17.7896 28.4835C17.7896 28.3238 17.792 28.1943 17.7893 28.0649C17.7673 27.0111 17.7475 25.9572 17.7197 24.9036C17.7128 24.6427 17.7672 24.4505 18.0314 24.4795C18.4269 24.5229 18.8202 24.5906 19.2148 24.6444C19.7971 24.7238 20.3796 24.8001 20.9924 24.8817C20.911 24.5503 20.8638 24.2682 20.7719 24.0067C20.6579 23.6822 20.7497 23.4598 20.967 23.2581C21.2055 23.0368 21.4364 22.8048 21.6707 22.5777C22.4067 21.8646 23.1427 21.1515 23.9194 20.399C23.7387 20.297 23.6058 20.1998 23.4606 20.1445C23.1194 20.0142 23.0515 19.7915 23.1587 19.3979C23.3449 18.7138 23.4796 18.0114 23.6447 17.2779C23.0606 17.4218 22.5175 17.5399 21.9823 17.694C21.7125 17.7717 21.5998 17.6433 21.535 17.3818C21.4718 17.1261 21.4087 16.8703 21.33 16.5516C20.8525 17.1873 20.4231 17.7754 19.974 18.3431C19.8805 18.4613 19.7139 18.504 19.581 18.5816C19.542 18.4206 19.4552 18.2524 19.4727 18.0999C19.539 17.5224 19.6385 16.9499 19.7266 16.3757C19.8318 15.6905 19.9379 15.0056 20.0545 14.2494C19.7761 14.4176 19.5583 14.5501 19.3398 14.6811C18.8884 14.9516 18.8096 14.923 18.5773 14.4099C18.2512 13.6899 17.9247 12.9701 17.5676 12.1825C17.3575 12.6484 17.1778 13.0469 16.97 13.4939Z" fill="#F3F2F2"/>
<path d="M9.07122 9.38285C9.10121 10.546 9.09648 11.7037 9.09653 12.8614C9.09681 18.8065 9.09832 24.7515 9.10154 30.7323C6.61151 30.768 4.11935 30.768 1.59961 30.768C1.59961 23.6499 1.59961 16.5321 1.59961 9.37746C4.08274 9.37746 6.56072 9.37746 9.07122 9.38285Z" fill="#E91E26"/>
<path d="M26.0658 30.7738C26.0357 29.5328 26.0404 28.297 26.0404 27.0612C26.0401 21.194 26.0385 15.3268 26.0352 9.42393C28.5251 9.38824 31.0173 9.38824 33.537 9.38824C33.537 16.5064 33.537 23.6241 33.537 30.7789C31.0542 30.7789 28.5762 30.7789 26.0658 30.7738Z" fill="#E91E26"/>
<path d="M16.9842 13.4696C17.1779 13.0469 17.3576 12.6484 17.5677 12.1825C17.9248 12.9701 18.2513 13.6899 18.5774 14.4099C18.8097 14.923 18.8884 14.9516 19.3399 14.6811C19.5584 14.5501 19.7761 14.4176 20.0546 14.2494C19.9379 15.0056 19.8318 15.6905 19.7267 16.3757C19.6386 16.9499 19.539 17.5224 19.4728 18.0999C19.4553 18.2524 19.5421 18.4206 19.581 18.5816C19.714 18.504 19.8806 18.4613 19.9741 18.3431C20.4232 17.7754 20.8525 17.1873 21.33 16.5516C21.4088 16.8703 21.4719 17.1261 21.5351 17.3818C21.5998 17.6433 21.7126 17.7717 21.9824 17.694C22.5175 17.5399 23.0606 17.4218 23.6448 17.2779C23.4797 18.0114 23.345 18.7138 23.1587 19.3979C23.0516 19.7915 23.1195 20.0142 23.4607 20.1445C23.6058 20.1998 23.7388 20.297 23.9195 20.399C23.1428 21.1515 22.4068 21.8646 21.6708 22.5777C21.4364 22.8048 21.2056 23.0368 20.9671 23.2581C20.7497 23.4598 20.6579 23.6822 20.7719 24.0067C20.8638 24.2682 20.9111 24.5503 20.9925 24.8817C20.3797 24.8001 19.7971 24.7238 19.2149 24.6444C18.8203 24.5906 18.427 24.5229 18.0315 24.4795C17.7673 24.4505 17.7129 24.6426 17.7197 24.9036C17.7475 25.9572 17.7674 27.0111 17.7893 28.0649C17.792 28.1943 17.7897 28.3238 17.7897 28.4835C17.6333 28.4835 17.4825 28.4835 17.2844 28.4835C17.3214 27.4358 17.3422 26.3864 17.4007 25.3398C17.4494 24.4701 17.4677 24.4546 16.718 24.5363C15.9155 24.6237 15.1161 24.7479 14.3152 24.8549C14.2723 24.8606 14.2282 24.8556 14.1498 24.8556C14.2222 24.5631 14.2713 24.2873 14.3592 24.0287C14.4726 23.6956 14.3868 23.4637 14.1583 23.2455C13.3199 22.4448 12.4888 21.6342 11.6554 20.8266C11.5256 20.7008 11.3985 20.5713 11.228 20.4017C11.4308 20.2842 11.6009 20.1678 11.7828 20.0848C12.0221 19.9754 12.071 19.7969 12.0063 19.5281C11.8301 18.796 11.6646 18.0606 11.4834 17.2767C12.0621 17.4182 12.6045 17.5303 13.1362 17.689C13.425 17.7753 13.5378 17.6411 13.604 17.3627C13.6624 17.1172 13.7236 16.8725 13.8023 16.5508C14.2473 17.1409 14.6522 17.6774 15.0568 18.2142C15.1088 18.2831 15.1478 18.3772 15.2128 18.4181C15.323 18.4875 15.4492 18.5238 15.5687 18.5741C15.6055 18.4346 15.6893 18.2867 15.6717 18.1569C15.5532 17.2865 15.4134 16.4199 15.28 15.5522C15.2176 15.1462 15.1541 14.7404 15.076 14.2368C15.3861 14.4288 15.6261 14.5835 15.8709 14.7275C16.2218 14.9338 16.3445 14.89 16.5236 14.498C16.6756 14.1652 16.8215 13.8288 16.9842 13.4696Z" fill="#E81E27"/>
</svg>
