<svg width="35" height="40" viewBox="0 0 35 40" fill="none" xmlns="http://www.w3.org/2000/svg">
<g clip-path="url(#clip0_47_100)">
<path d="M35.0684 6.95312C35.0684 15.6788 35.0684 24.4045 35.0363 33.1666C23.359 33.2031 11.7137 33.2031 0.0683594 33.2031C0.0683594 24.4774 0.0683594 15.7518 0.100396 6.98961C11.7777 6.95312 23.4231 6.95312 35.0684 6.95312ZM23.9415 22.1343C23.9415 20.6411 23.9415 19.148 23.9415 17.6196C22.4424 17.6196 20.9785 17.6196 19.4834 17.6196C19.4834 15.6918 19.4834 13.7992 19.4834 11.8939C18.1944 11.8939 16.9371 11.8939 15.6541 11.8939C15.6541 12.0394 15.6541 12.1666 15.6541 12.2938C15.6541 13.8946 15.6541 15.4955 15.6541 17.0963C15.6541 17.6206 15.6541 17.6194 15.2124 17.6192C14.0964 17.6185 12.9804 17.6189 11.8643 17.6189C11.6515 17.6189 11.4386 17.6189 11.2177 17.6189C11.2177 19.2783 11.2177 20.8959 11.2177 22.5496C12.703 22.5496 14.1661 22.5496 15.6625 22.5496C15.6625 24.4781 15.6625 26.3706 15.6625 28.2558C16.9539 28.2558 18.2113 28.2558 19.5013 28.2558C19.5013 26.3391 19.5013 24.4475 19.5013 22.5423C20.9006 22.5423 22.2669 22.5371 23.6331 22.5475C23.8598 22.5492 23.9841 22.4955 23.9415 22.1343Z" fill="#C6001E"/>
<path d="M23.9415 22.1715C23.9841 22.4955 23.8598 22.5492 23.6332 22.5475C22.2669 22.5371 20.9006 22.5423 19.5014 22.5423C19.5014 24.4475 19.5014 26.339 19.5014 28.2558C18.2113 28.2558 16.9539 28.2558 15.6626 28.2558C15.6626 26.3706 15.6626 24.4781 15.6626 22.5496C14.1661 22.5496 12.703 22.5496 11.2178 22.5496C11.2178 20.8959 11.2178 19.2783 11.2178 17.6189C11.4386 17.6189 11.6515 17.6189 11.8643 17.6189C12.9804 17.6189 14.0964 17.6185 15.2125 17.6192C15.6541 17.6194 15.6541 17.6206 15.6541 17.0963C15.6541 15.4955 15.6541 13.8946 15.6541 12.2938C15.6541 12.1666 15.6541 12.0394 15.6541 11.8939C16.9371 11.8939 18.1945 11.8939 19.4834 11.8939C19.4834 13.7992 19.4834 15.6918 19.4834 17.6196C20.9785 17.6196 22.4424 17.6196 23.9415 17.6196C23.9415 19.148 23.9415 20.6411 23.9415 22.1715Z" fill="white"/>
</g>
<defs>
<clipPath id="clip0_47_100">
<rect width="35" height="40" fill="white"/>
</clipPath>
</defs>
</svg>
