<svg width="35" height="40" viewBox="0 0 35 40" fill="none" xmlns="http://www.w3.org/2000/svg">
<g clip-path="url(#clip0_47_216)">
<path d="M0.0683594 7.38037C0.250156 7.10779 0.449127 6.95199 0.7528 6.95259C5.76774 6.9625 10.7827 6.96155 15.8475 6.98334C16.2228 7.1189 16.3552 7.37944 16.3533 7.75915C16.3512 8.16922 16.3654 8.5794 16.3658 9.02525C16.3637 9.71017 16.3684 10.3594 16.3651 11.0445C16.3619 11.7315 16.3666 12.3825 16.3648 13.0708C16.3619 13.7477 16.3655 14.3872 16.3631 15.0608C16.3623 15.7461 16.3677 16.3972 16.3667 17.0831C16.3643 17.7669 16.3682 18.4159 16.3649 19.1003C16.3557 19.4948 16.3377 19.8549 16.3558 20.2126C16.3765 20.6222 16.2342 20.9021 15.8868 21.0818C10.8239 21.0876 5.79232 21.0881 0.760763 21.0961C0.433276 21.0966 0.236005 20.903 0.0683594 20.625C0.0683594 16.2223 0.0683594 11.8197 0.0683594 7.38037ZM7.00108 10.9938C6.97037 10.8595 6.93965 10.7251 6.91162 10.6026C7.03628 10.4804 7.14122 10.3775 7.24615 10.2746C6.87639 10.2665 6.66799 10.0928 6.62461 9.64985C6.36798 10.1133 6.36798 10.1133 5.88125 10.2724C6.26131 10.4514 6.29486 10.758 6.10854 11.2063C6.34716 11.0436 6.47136 10.9589 6.5441 10.9094C6.72897 10.9657 6.86805 11.0081 7.00108 10.9938ZM4.54898 9.81591C4.66356 9.91311 4.66356 9.91311 4.95957 9.70292C5.08804 9.78688 5.21774 9.87164 5.44522 10.0203C5.24017 9.56453 5.30566 9.28145 5.64788 9.05355C5.24865 9.10389 5.05536 8.89236 4.94503 8.48769C4.90238 8.97633 4.63296 9.05688 4.2185 9.01221C4.41536 9.20941 4.52278 9.31703 4.64051 9.43496C4.61579 9.5413 4.59009 9.65186 4.54898 9.81591ZM14.7286 15.7242C14.5991 16.034 14.4484 16.3119 14.0347 16.2466C14.4044 16.462 14.4257 16.764 14.2372 17.2098C14.4785 17.0483 14.6023 16.9655 14.7242 16.8839C14.8508 16.9729 14.9708 17.0573 15.1581 17.189C15.1089 16.9353 15.0783 16.7773 15.0467 16.6143C15.1571 16.5045 15.2659 16.3964 15.4489 16.2145C15.0756 16.2323 14.8107 16.1652 14.7286 15.7242ZM14.683 8.56306C14.6133 8.9231 14.41 9.0823 14.064 9.02688C14.3531 9.46421 14.3531 9.46421 14.3242 9.96384C14.4746 9.86542 14.6055 9.77971 14.7268 9.70033C14.8618 9.79403 14.9783 9.87486 15.0948 9.95569C15.137 9.94838 15.1792 9.94107 15.2214 9.93376C14.8891 9.50991 15.152 9.30097 15.4141 9.00137C14.9453 9.19618 14.8591 8.83323 14.683 8.56306ZM13.3242 10.1653C13.2518 10.0116 13.1794 9.85799 13.107 9.70434C13.0749 10.1856 12.7501 10.2012 12.3664 10.2091C12.555 10.3932 12.664 10.4996 12.7705 10.6036C12.737 10.7719 12.706 10.9275 12.6557 11.1802C12.8469 11.0458 12.967 10.9613 13.0895 10.8751C13.2187 10.9604 13.3482 11.0458 13.5738 11.1946C13.3785 10.7416 13.432 10.4542 13.7939 10.2781C13.7732 10.2534 13.7526 10.2287 13.7319 10.204C13.6144 10.1949 13.4968 10.1857 13.3242 10.1653ZM7.00794 18.2308C6.97534 18.0823 6.94274 17.9337 6.91157 17.7916C7.02971 17.6729 7.13611 17.566 7.24251 17.4592C6.88526 17.4566 6.67945 17.2645 6.57262 16.853C6.52302 17.3284 6.25586 17.413 5.9149 17.4298C6.02782 17.5971 6.18771 17.6803 6.23465 17.8149C6.2781 17.9395 6.20068 18.1192 6.1659 18.3425C6.34505 18.2227 6.46839 18.1402 6.573 18.0702C6.7186 18.1439 6.84842 18.2097 7.00794 18.2308ZM3.72228 11.0991C3.69317 10.7771 3.62364 10.44 4.02403 10.2346C3.62205 10.274 3.42433 10.0685 3.32005 9.65598C3.27988 10.155 3.00099 10.2244 2.63638 10.2467C3.03273 10.4285 3.02696 10.7436 2.93975 11.1406C3.19918 10.851 3.43466 10.8652 3.72228 11.0991ZM11.0647 16.9951C11.2049 16.9814 11.3451 16.9678 11.552 16.9477C11.6032 16.9802 11.7246 17.0572 11.8459 17.1343C11.7292 16.7417 11.8331 16.4701 12.1376 16.2385C11.741 16.2904 11.5646 16.0696 11.4565 15.6725C11.4119 16.1506 11.1302 16.2297 10.7559 16.2189C10.9676 16.4729 11.2624 16.5851 11.0647 16.9951ZM5.06731 15.9119C5.03672 15.8466 5.00613 15.7812 4.97553 15.7158C4.941 16.1964 4.61333 16.2088 4.22835 16.2223C4.42272 16.4078 4.53294 16.5131 4.63749 16.6129C4.60348 16.7858 4.57297 16.941 4.52668 17.1765C4.71485 17.0521 4.83777 16.9708 4.96152 16.889C5.08965 16.9711 5.2168 17.0525 5.34394 17.134C5.17729 16.7125 5.39394 16.4787 5.57194 16.3088C5.39135 16.1832 5.23787 16.0764 5.06731 15.9119ZM2.77444 17.373C2.75175 17.409 2.72906 17.4451 2.70637 17.4812C2.98847 17.6628 3.05764 17.9339 2.88129 18.3605C3.09695 18.2214 3.21956 18.1423 3.33439 18.0683C3.47045 18.1547 3.59142 18.2316 3.71239 18.3085C3.59753 17.9155 3.69768 17.6429 4.00545 17.4134C3.61062 17.4609 3.43167 17.2437 3.35457 16.8162C3.20195 17.1139 3.17983 17.4771 2.77444 17.373ZM1.34847 9.62421C1.33011 9.71999 1.31175 9.81576 1.27816 9.99099C1.46087 9.86857 1.58341 9.78647 1.70921 9.70217C1.83396 9.78596 1.95625 9.86811 2.07855 9.95025C1.96654 9.56311 2.05877 9.28661 2.38953 9.0442C1.97349 9.12759 1.81591 8.87466 1.69626 8.50687C1.63247 8.93657 1.40099 9.0762 1.06739 9.02353C1.18479 9.23825 1.27362 9.40071 1.34847 9.62421ZM11.5584 9.75868C11.656 9.82215 11.7536 9.88562 11.8511 9.94909C11.6871 9.53177 11.8838 9.29108 12.1311 9.02718C11.7045 9.14707 11.579 8.84468 11.4512 8.4845C11.4105 8.972 11.1422 9.05743 10.7655 9.07263C11.1843 9.24758 11.1475 9.57399 11.0478 9.94981C11.2345 9.8585 11.3714 9.79151 11.5584 9.75868ZM9.69028 10.9797C9.87443 11.0022 10.0586 11.0247 10.2658 11.0501C10.1011 10.7186 10.2165 10.4624 10.5078 10.2346C10.1403 10.2584 9.92891 10.0884 9.84081 9.67931C9.75484 10.0892 9.54738 10.2653 9.16281 10.2342C9.50431 10.4553 9.57186 10.7405 9.36846 11.1708C9.53105 11.0797 9.58934 11.0471 9.69028 10.9797ZM9.68969 18.1646C9.87403 18.1875 10.0584 18.2104 10.266 18.2362C10.1046 17.9063 10.2133 17.6474 10.5066 17.4198C10.142 17.4394 9.9278 17.274 9.82833 16.8469C9.7893 17.3265 9.51354 17.3972 9.16873 17.4352C9.51152 17.6389 9.56687 17.9287 9.3704 18.3558C9.53095 18.2654 9.58918 18.2326 9.68969 18.1646ZM2.1965 16.1918C1.83134 16.3264 1.86881 15.8723 1.64855 15.6664C1.66063 16.1684 1.37117 16.2234 1.04238 16.2581C1.37899 16.4759 1.41072 16.764 1.24829 17.1909C1.46644 17.0488 1.59704 16.9637 1.71202 16.8888C1.84977 16.9802 1.96636 17.0576 2.08294 17.135C2.10791 17.1216 2.13287 17.1082 2.15784 17.0948C2.01801 16.7882 2.00034 16.5248 2.29274 16.3605C2.3006 16.3561 2.26632 16.2537 2.1965 16.1918ZM12.5412 17.5743C12.6195 17.6457 12.6978 17.7171 12.7713 17.7842C12.7369 17.9571 12.7058 18.1129 12.6562 18.3621C12.8464 18.2307 12.9671 18.1473 13.088 18.0638C13.2188 18.144 13.3485 18.2235 13.5395 18.3405C13.4845 18.0971 13.4493 17.9413 13.4163 17.7949C13.5347 17.6738 13.6396 17.5665 13.7446 17.4592C13.7626 17.4097 13.7806 17.3602 13.7986 17.3107C13.3329 17.5401 13.2139 17.2096 13.0735 16.8513C13.0172 17.2476 12.8563 17.4296 12.5359 17.3783C12.5316 17.3776 12.5145 17.482 12.5412 17.5743ZM7.84681 9.38647C7.83659 9.56605 7.82636 9.74564 7.81354 9.97084C7.97559 9.86511 8.10005 9.78389 8.21819 9.70681C8.34901 9.79049 8.46722 9.86611 8.58543 9.94173C8.62229 9.93554 8.65915 9.92935 8.69601 9.92316C8.38257 9.50468 8.665 9.30295 8.87722 9.03276C8.4965 9.10242 8.29985 8.91282 8.20179 8.47507C8.17221 8.98023 7.89281 9.04068 7.48332 9.03141C7.64481 9.18819 7.72529 9.26632 7.84681 9.38647ZM7.87317 16.629C7.85008 16.7879 7.82699 16.9467 7.78231 17.2541C8.08099 16.8567 8.33767 16.8691 8.63753 17.2122C8.60043 16.9246 8.5321 16.7461 8.57281 16.6104C8.61239 16.4784 8.76373 16.3902 8.866 16.2828C8.88378 16.2328 8.90156 16.1828 8.91935 16.1328C8.45093 16.3753 8.33811 16.0294 8.18974 15.6882C8.15956 16.1681 7.87838 16.2298 7.48758 16.2106C7.66529 16.3894 7.75672 16.4813 7.87317 16.629ZM5.47477 14.041C5.51802 13.9891 5.56127 13.9373 5.6153 13.8726C5.20971 13.7702 5.20971 13.7702 4.92114 13.2781C4.88434 13.7282 4.6562 13.8825 4.28381 13.8695C4.67314 14.0699 4.64226 14.391 4.49461 14.8199C4.71494 14.664 4.83633 14.5781 4.95326 14.4954C5.09303 14.5807 5.22261 14.6598 5.30759 14.7117C5.35194 14.4789 5.39028 14.2776 5.47477 14.041ZM13.4951 15.7347C13.2858 15.3833 13.6077 15.2542 13.7967 14.9633C13.363 15.0967 13.1893 14.8694 13.0941 14.4592C12.9978 14.8695 12.8283 15.102 12.4144 15.0144C12.7476 15.2472 12.8266 15.5381 12.7272 15.9214C12.8497 15.8363 12.9721 15.7512 13.0999 15.6623C13.2012 15.738 13.2924 15.8168 13.3933 15.8732C13.4159 15.8858 13.4722 15.8194 13.4951 15.7347ZM7.92308 12.3099C8.15112 12.0024 8.37257 12.1834 8.63648 12.3496C8.4532 11.9494 8.60005 11.6824 8.89805 11.4197C8.45727 11.5675 8.33476 11.2614 8.20646 10.8024C8.11605 11.2894 7.94023 11.506 7.54443 11.4532C7.88736 11.6742 7.89324 11.9795 7.81835 12.3133C7.81815 12.3142 7.85548 12.3261 7.92308 12.3099ZM4.50424 18.873C4.80598 19.0431 4.46059 19.3139 4.60046 19.5632C4.83501 19.2039 5.10205 19.3179 5.39188 19.5329C5.19585 19.1199 5.36081 18.8699 5.62811 18.6172C5.22915 18.7055 5.05737 18.4786 4.98703 17.9848C4.8782 18.2694 4.82092 18.4192 4.76307 18.5705C4.61248 18.5899 4.46516 18.6088 4.25828 18.6353C4.36363 18.7393 4.41372 18.7888 4.50424 18.873ZM9.62921 12.5571C9.48987 12.5743 9.35052 12.5915 9.21118 12.6088C9.1783 12.6327 9.14542 12.6567 9.11253 12.6807C9.56286 12.8235 9.52679 13.1588 9.44106 13.5368C9.72413 13.2077 9.97966 13.285 10.1573 13.4776C10.2433 13.174 10.3227 12.8934 10.4072 12.5952C10.0733 12.7608 9.96498 12.4099 9.84094 12.0127C9.75768 12.2509 9.7121 12.3814 9.62921 12.5571ZM1.95201 12.27C2.14055 12.4143 2.15631 12.2745 2.09861 12.1302C2.0025 11.8898 2.06396 11.7421 2.24772 11.6167C2.29314 11.5857 2.31464 11.5089 2.39607 11.3692C1.95021 11.554 1.82753 11.2401 1.68716 10.9034C1.64859 11.3764 1.37875 11.4487 1.03671 11.4667C1.36748 11.6813 1.44473 11.9637 1.26035 12.3361C1.51995 12.3218 1.67605 11.9264 1.95201 12.27ZM15.1864 18.5935C14.8312 18.7076 14.8789 18.282 14.6893 18.083C14.626 18.4871 14.4382 18.686 14.0479 18.6378C14.3748 18.8661 14.4584 19.153 14.2964 19.552C14.5928 19.2617 14.8491 19.2552 15.143 19.5035C15.11 19.3371 15.077 19.1707 15.0434 19.0015C15.1417 18.912 15.2338 18.836 15.3133 18.7457C15.3231 18.7346 15.2662 18.6467 15.1864 18.5935ZM8.63337 18.5934C8.29461 18.6856 8.38464 18.2421 8.17234 18.0837C8.13771 18.5252 7.90473 18.6529 7.54501 18.6546C7.90387 18.866 7.9302 19.1653 7.79043 19.5576C8.07856 19.2875 8.33524 19.2186 8.65438 19.5703C8.38742 19.1137 8.63017 18.8826 8.91975 18.629C8.79101 18.6097 8.73865 18.6018 8.63337 18.5934ZM6.71387 12.3779C6.67694 12.2866 6.64002 12.1954 6.6031 12.1042C6.53173 12.5698 6.24353 12.6166 5.90324 12.646C6.30143 12.8447 6.2802 13.1605 6.10792 13.5862C6.33624 13.4405 6.46178 13.297 6.58623 13.2983C6.71619 13.2995 6.84511 13.4401 7.03485 13.5569C6.97924 13.3124 6.94352 13.1553 6.90996 13.0078C7.03158 12.8798 7.13942 12.7663 7.23079 12.6701C7.04016 12.58 6.88756 12.5078 6.71387 12.3779ZM14.3221 12.3247C14.5857 12.1563 14.8496 12.0117 15.1466 12.3756C14.9554 11.9416 15.1106 11.6797 15.465 11.4364C15.2034 11.4143 15.0601 11.4022 14.9222 11.3905C14.86 11.2297 14.803 11.0824 14.746 10.9352C14.7178 10.9109 14.6896 10.8866 14.6614 10.8623C14.6704 11.3709 14.4129 11.4597 14.0438 11.4591C14.3632 11.6682 14.442 11.9337 14.3221 12.3247ZM15.0538 14.3236C15.1528 14.1688 15.2518 14.014 15.3909 13.7966C14.9926 13.9241 14.8162 13.7026 14.7218 13.2906C14.626 13.6971 14.4471 13.9145 14.0564 13.8496C14.387 14.0809 14.4338 14.3726 14.3021 14.7695C14.5872 14.46 14.852 14.4789 15.1434 14.7013C15.1191 14.5929 15.0947 14.4845 15.0538 14.3236ZM10.8869 18.7682C11.2368 18.9138 11.0683 19.2469 11.07 19.617C11.3495 19.2095 11.6069 19.2958 11.8995 19.5567C11.7105 19.1434 11.848 18.8698 12.1358 18.6072C11.7051 18.7412 11.5801 18.4359 11.4643 18.0842C11.3702 18.4684 11.2128 18.6776 10.8779 18.6116C10.8745 18.6109 10.8593 18.6882 10.8869 18.7682ZM11.352 11.1499C11.3244 11.5578 10.9879 11.3222 10.7691 11.5066C11.1572 11.6603 11.1529 11.9844 11.0775 12.3629C11.359 11.9922 11.6159 12.1577 11.895 12.3519C11.7123 11.9481 11.8498 11.6878 12.1249 11.4428C11.7366 11.5126 11.5677 11.2852 11.4884 10.8671C11.4231 10.9887 11.3956 11.0399 11.352 11.1499ZM4.55396 11.4077C4.47604 11.4207 4.39812 11.4337 4.2605 11.4567C4.42622 11.6169 4.53643 11.7234 4.64083 11.8243C4.60507 12.0002 4.57309 12.1575 4.54111 12.3147C4.83134 12.0486 5.09626 12.0955 5.38937 12.3612C5.19292 11.9409 5.376 11.6849 5.62775 11.4155C5.19495 11.5653 5.07934 11.2427 5.00007 10.9557C4.85084 11.1279 4.72979 11.2676 4.55396 11.4077ZM6.54512 15.6926C6.68958 15.764 6.83404 15.8355 6.9785 15.9069C6.75021 15.4893 7.02005 15.264 7.25602 14.994C6.82727 15.1422 6.70678 14.823 6.55728 14.459C6.55513 14.9879 6.2402 14.9991 5.92002 15.0612C6.30805 15.2455 6.26778 15.569 6.11293 15.9989C6.31108 15.8544 6.40475 15.7861 6.54512 15.6926ZM12.7983 12.5796C12.6841 12.5868 12.5699 12.5941 12.3762 12.6063C12.5559 12.7847 12.6644 12.8924 12.7752 13.0024C12.739 13.1674 12.7045 13.324 12.6701 13.4807C12.6793 13.523 12.6885 13.5653 12.6976 13.6077C12.9633 13.1752 13.2278 13.2972 13.5532 13.5399C13.2511 13.0951 13.533 12.871 13.7684 12.5785C13.3158 12.7611 13.2174 12.4116 13.1079 12.0574C13.0028 12.2708 12.928 12.4225 12.7983 12.5796ZM1.6877 13.3429C1.58587 13.6609 1.44208 13.9204 1.02654 13.8728C1.47109 14.0621 1.34484 14.4185 1.31392 14.7715C1.58723 14.4174 1.84324 14.5017 2.13421 14.76C1.95928 14.3579 2.06211 14.0848 2.37028 13.8478C1.95065 13.9403 1.83873 13.6464 1.6877 13.3429ZM3.50113 13.383C3.57388 13.4287 3.64664 13.4744 3.7194 13.5201C3.54925 13.1165 3.75431 12.8641 3.99029 12.5949C3.57582 12.7148 3.44675 12.4398 3.32542 12.0689C3.26216 12.5136 3.0251 12.6524 2.65116 12.6317C2.99826 12.8499 3.07022 13.1335 2.9177 13.466C3.11944 13.4231 3.28878 13.3871 3.50113 13.383ZM1.73641 18.1383C1.56492 18.381 1.46792 18.7432 1.03002 18.6342C1.40833 18.861 1.39642 19.1751 1.29856 19.5575C1.57922 19.2556 1.83575 19.2484 2.14095 19.5621C1.91532 19.1359 2.10675 18.8804 2.36037 18.6318C2.03019 18.6448 1.81383 18.5515 1.73641 18.1383ZM2.91533 14.9872C2.84416 14.9973 2.77298 15.0074 2.7018 15.0175C3.00606 15.2479 3.06267 15.5378 2.92339 15.9428C3.21524 15.6055 3.47179 15.6642 3.75987 15.9456C3.60035 15.544 3.68705 15.2536 3.99805 15.0143C3.5931 15.1003 3.44475 14.8508 3.37361 14.534C3.22747 14.6976 3.09827 14.8422 2.91533 14.9872ZM8.29718 13.4488C8.24871 13.4323 8.20024 13.4158 8.15177 13.3992C8.12282 13.7925 7.85912 13.8395 7.55206 13.8826C7.93362 14.0758 7.89623 14.3986 7.80489 14.7734C8.07695 14.4485 8.33663 14.4899 8.63175 14.7301C8.44673 14.3181 8.62661 14.0756 8.92433 13.8455C8.6276 13.7929 8.34531 13.902 8.29718 13.4488ZM9.55566 15.8739C9.78931 15.5513 10.0082 15.7812 10.2837 15.926C10.0786 15.5369 10.2082 15.2719 10.5005 15.008C10.0839 15.1283 9.96027 14.8257 9.8208 14.4834C9.76596 14.9098 9.54186 15.0568 9.18547 15.0373C9.46657 15.2582 9.56909 15.4922 9.43526 15.8163C9.43031 15.8282 9.48377 15.8717 9.55566 15.8739ZM10.9001 13.9891C11.2442 14.1273 11.0755 14.4476 11.0725 14.8191C11.3544 14.4057 11.611 14.522 11.8902 14.7587C11.7374 14.3604 11.8087 14.0765 12.1411 13.8386C11.7103 13.9541 11.5829 13.6496 11.4623 13.3017C11.368 13.6826 11.2123 13.8986 10.8756 13.829C10.871 13.8699 10.8664 13.9107 10.9001 13.9891Z" fill="#43499C"/>
<path d="M0.0683594 20.6616C0.236005 20.903 0.433276 21.0966 0.760763 21.0961C5.79232 21.0881 10.8239 21.0876 15.9196 21.0861C16.6552 21.0879 17.3267 21.0898 17.9981 21.09C23.6882 21.0914 29.3783 21.0925 35.0684 21.0937C35.0684 21.7464 35.0684 22.3991 35.0366 23.0829C23.4274 23.1131 11.85 23.1123 0.272516 23.112C0.204464 23.112 0.136412 23.1205 0.0683594 23.125C0.0683594 22.3161 0.0683594 21.5072 0.0683594 20.6616Z" fill="#F5F3F3"/>
<path d="M35.0684 29.1406C35.0684 29.7933 35.0684 30.446 35.0363 31.1337C28.6865 31.1686 22.3686 31.1678 16.0508 31.1683C10.7233 31.1687 5.39583 31.1706 0.0683594 31.1719C0.0683594 30.5192 0.0683594 29.8665 0.100351 29.1794C11.4817 29.1452 22.8312 29.1456 34.1806 29.1456C34.4765 29.1456 34.7724 29.1424 35.0684 29.1406Z" fill="#F5F4F4"/>
<path d="M35.0682 29.104C34.7723 29.1424 34.4763 29.1456 34.1804 29.1456C22.831 29.1456 11.4816 29.1452 0.100203 29.1428C0.0682105 28.488 0.0682105 27.8353 0.0999101 27.1519C11.7091 27.1221 23.2866 27.123 34.8642 27.1233C34.9322 27.1233 35.0002 27.1142 35.0682 27.1094C35.0682 27.762 35.0682 28.4147 35.0682 29.104Z" fill="#FF4D57"/>
<path d="M0.0683595 23.1616C0.136412 23.1205 0.204464 23.112 0.272516 23.112C11.85 23.1122 23.4274 23.1131 35.0366 23.1195C35.0684 23.7777 35.0684 24.4303 35.0375 25.1086C34.9498 25.1321 34.8929 25.1283 34.836 25.1283C23.3482 25.128 11.8604 25.1279 0.372633 25.1292C0.271208 25.1292 0.169784 25.1468 0.0683594 25.1562C0.0683594 24.5036 0.0683594 23.8509 0.0683595 23.1616Z" fill="#FF4E58"/>
<path d="M0.0683594 31.2085C5.39583 31.1706 10.7233 31.1687 16.0508 31.1683C22.3686 31.1678 28.6865 31.1686 35.0363 31.1703C35.0684 31.6943 35.0684 32.2168 35.0684 32.7759C34.8568 33.1195 34.5828 33.2014 34.2429 33.2012C23.12 33.1927 11.9971 33.1938 0.874243 33.1961C0.568858 33.1961 0.276916 33.1889 0.092479 32.8163C0.0683594 32.29 0.0683594 31.7676 0.0683594 31.2085Z" fill="#FF4D56"/>
<path d="M0.0683594 25.1929C0.169784 25.1468 0.271208 25.1292 0.372633 25.1292C11.8604 25.1279 23.3482 25.128 34.8361 25.1283C34.8929 25.1283 34.9498 25.1321 35.0375 25.1452C35.0684 25.7829 35.0684 26.4095 35.0684 27.0728C35.0003 27.1142 34.9323 27.1233 34.8643 27.1233C23.2868 27.123 11.7093 27.1221 0.100059 27.1152C0.0683594 26.4827 0.0683594 25.8561 0.0683594 25.1929Z" fill="#F5F5F5"/>
<path d="M35.0686 21.0571C29.3785 21.0925 23.6884 21.0914 17.9983 21.09C17.3269 21.0898 16.6555 21.0879 15.9512 21.0826C16.2344 20.9021 16.3768 20.6222 16.3561 20.2126C16.338 19.8549 16.3559 19.4948 16.3945 19.1003C22.6436 19.064 28.8561 19.0632 35.0686 19.0625C35.0686 19.7152 35.0686 20.3678 35.0686 21.0571Z" fill="#FF4C56"/>
<path d="M16.3724 8.98953C16.3653 8.5794 16.3511 8.16922 16.3532 7.75915C16.3551 7.37944 16.2227 7.1189 15.8794 6.98802C16.3279 6.96895 16.7943 6.96256 17.2607 6.96251C22.9281 6.96183 28.5954 6.96278 34.2628 6.96015C34.5681 6.96 34.8598 6.96754 35.0442 7.33991C35.0683 7.86622 35.0683 8.3887 35.0363 8.94931C28.7936 8.98814 22.583 8.98884 16.3724 8.98953Z" fill="#FF4D57"/>
<path d="M16.3657 9.02525C22.583 8.98883 28.7937 8.98814 35.0363 8.98591C35.0683 9.63705 35.0683 10.2897 35.0363 10.9769C28.7939 11.0104 22.5834 11.0095 16.373 11.0086C16.3683 10.3594 16.3637 9.71017 16.3657 9.02525Z" fill="#F5F3F4"/>
<path d="M35.0681 19.0259C28.8556 19.0632 22.6431 19.064 16.4012 19.0648C16.368 18.4159 16.3641 17.7669 16.3958 17.0823C22.496 17.0461 28.5606 17.0456 34.6251 17.0443C34.7728 17.0443 34.9205 17.0358 35.0681 17.0312C35.0681 17.6839 35.0681 18.3366 35.0681 19.0259Z" fill="#F5F3F3"/>
<path d="M35.0681 16.9946C34.9205 17.0358 34.7728 17.0443 34.6251 17.0443C28.5606 17.0456 22.496 17.0461 16.4021 17.0476C16.3675 16.3972 16.3621 15.7461 16.3923 15.06C22.5627 15.0262 28.6975 15.0273 34.8322 15.0271C34.9109 15.0271 34.9895 15.0094 35.0681 15C35.0681 15.6527 35.0681 16.3053 35.0681 16.9946Z" fill="#FF4E58"/>
<path d="M16.3653 11.0445C22.5837 11.0095 28.7941 11.0104 35.0366 11.0135C35.0686 11.6683 35.0686 12.321 35.0369 13.0044C28.7939 13.0346 22.5827 13.034 16.3715 13.0335C16.3668 12.3825 16.3621 11.7315 16.3653 11.0445Z" fill="#FF4D57"/>
<path d="M16.3646 13.0708C22.5823 13.034 28.7935 13.0346 35.0364 13.041C35.0681 13.6735 35.0681 14.3001 35.0681 14.9634C34.9895 15.0094 34.9109 15.0271 34.8323 15.0271C28.6975 15.0273 22.5627 15.0262 16.3984 15.0259C16.3653 14.3872 16.3617 13.7477 16.3646 13.0708Z" fill="#F5F5F5"/>
<path d="M7.00421 11.0221C6.86815 11.0081 6.72906 10.9657 6.54419 10.9094C6.47145 10.9589 6.34726 11.0436 6.10863 11.2063C6.29495 10.758 6.26141 10.4514 5.88135 10.2724C6.36807 10.1133 6.36807 10.1133 6.62471 9.64985C6.66809 10.0928 6.87648 10.2665 7.24625 10.2747C7.14131 10.3775 7.03638 10.4804 6.91172 10.6026C6.93975 10.7251 6.97046 10.8595 7.00421 11.0221Z" fill="#E9E9EF"/>
<path d="M4.55644 9.78917C4.58985 9.65186 4.61555 9.5413 4.64026 9.43496C4.52254 9.31703 4.41511 9.20941 4.21826 9.01221C4.63272 9.05688 4.90213 8.97633 4.94479 8.48769C5.05512 8.89236 5.24841 9.10389 5.64764 9.05355C5.30542 9.28145 5.23993 9.56453 5.44498 10.0203C5.2175 9.87164 5.0878 9.78688 4.95932 9.70292C4.66332 9.91311 4.66332 9.91311 4.55644 9.78917Z" fill="#E8E8EE"/>
<path d="M14.7485 15.7423C14.8107 16.1652 15.0756 16.2323 15.4489 16.2145C15.2659 16.3964 15.1571 16.5045 15.0467 16.6143C15.0783 16.7773 15.1089 16.9353 15.1581 17.189C14.9708 17.0573 14.8508 16.9729 14.7242 16.8839C14.6024 16.9655 14.4785 17.0483 14.2372 17.2098C14.4257 16.764 14.4044 16.462 14.0347 16.2466C14.4484 16.3119 14.5991 16.034 14.7485 15.7423Z" fill="#E9EAEF"/>
<path d="M14.7057 8.55064C14.8591 8.83323 14.9453 9.19618 15.414 9.00137C15.1519 9.30096 14.889 9.50991 15.2213 9.93376C15.1791 9.94107 15.137 9.94838 15.0948 9.95568C14.9783 9.87485 14.8618 9.79402 14.7267 9.70032C14.6054 9.7797 14.4745 9.86541 14.3241 9.96384C14.353 9.4642 14.353 9.4642 14.064 9.02688C14.4099 9.0823 14.6132 8.92309 14.7057 8.55064Z" fill="#EAEAEF"/>
<path d="M13.3515 10.1709C13.4966 10.1857 13.6142 10.1948 13.7317 10.204C13.7524 10.2287 13.773 10.2534 13.7937 10.2781C13.4318 10.4541 13.3783 10.7416 13.5736 11.1946C13.348 11.0458 13.2185 10.9604 13.0893 10.8751C12.9668 10.9613 12.8467 11.0458 12.6555 11.1802C12.7058 10.9275 12.7368 10.7718 12.7703 10.6036C12.6638 10.4996 12.5548 10.3932 12.3662 10.2091C12.7499 10.2012 13.0747 10.1856 13.1068 9.70434C13.1792 9.85798 13.2516 10.0116 13.3515 10.1709Z" fill="#E8E8EE"/>
<path d="M6.99323 18.2531C6.84856 18.2097 6.71874 18.1439 6.57314 18.0702C6.46853 18.1402 6.34519 18.2227 6.16604 18.3425C6.20082 18.1192 6.27824 17.9395 6.23479 17.8149C6.18785 17.6803 6.02796 17.5971 5.91504 17.4298C6.256 17.413 6.52316 17.3284 6.57276 16.853C6.67959 17.2645 6.8854 17.4566 7.24265 17.4592C7.13625 17.566 7.02985 17.6729 6.91171 17.7916C6.94288 17.9337 6.97548 18.0823 6.99323 18.2531Z" fill="#E9EAEF"/>
<path d="M3.69392 11.1007C3.43451 10.8652 3.19903 10.851 2.93961 11.1406C3.02681 10.7436 3.03258 10.4285 2.63623 10.2467C3.00084 10.2244 3.27973 10.155 3.3199 9.65598C3.42418 10.0685 3.6219 10.274 4.02388 10.2346C3.62349 10.44 3.69303 10.7771 3.69392 11.1007Z" fill="#E7E8EE"/>
<path d="M11.069 16.9639C11.2624 16.5851 10.9675 16.4729 10.7559 16.2189C11.1301 16.2297 11.4119 16.1506 11.4564 15.6725C11.5646 16.0696 11.7409 16.2904 12.1375 16.2385C11.8331 16.4701 11.7292 16.7417 11.8459 17.1343C11.7245 17.0572 11.6031 16.9802 11.5519 16.9477C11.3451 16.9678 11.2048 16.9814 11.069 16.9639Z" fill="#E9EAEF"/>
<path d="M5.07601 15.9408C5.23803 16.0764 5.39152 16.1832 5.57211 16.3088C5.39411 16.4787 5.17746 16.7125 5.34411 17.134C5.21697 17.0525 5.08982 16.9711 4.96168 16.889C4.83794 16.9708 4.71501 17.0521 4.52684 17.1765C4.57314 16.941 4.60365 16.7859 4.63765 16.6129C4.53311 16.5131 4.42289 16.4078 4.22852 16.2223C4.6135 16.2088 4.94116 16.1964 4.9757 15.7158C5.00629 15.7812 5.03689 15.8466 5.07601 15.9408Z" fill="#E8E9EF"/>
<path d="M2.80023 17.3695C3.18 17.4771 3.20212 17.1139 3.35475 16.8162C3.43185 17.2437 3.61079 17.4609 4.00562 17.4134C3.69785 17.6429 3.5977 17.9155 3.71256 18.3085C3.59159 18.2316 3.47062 18.1547 3.33456 18.0683C3.21973 18.1423 3.09712 18.2214 2.88147 18.3605C3.05781 17.9339 2.98864 17.6628 2.70654 17.4812C2.72923 17.4451 2.75192 17.409 2.80023 17.3695Z" fill="#E8E8EE"/>
<path d="M1.35544 9.59369C1.27361 9.40071 1.18478 9.23825 1.06738 9.02353C1.40098 9.0762 1.63246 8.93657 1.69625 8.50687C1.8159 8.87466 1.97348 9.12759 2.38952 9.0442C2.05876 9.28661 1.96653 9.56311 2.07854 9.95025C1.95624 9.86811 1.83394 9.78596 1.7092 9.70217C1.5834 9.78647 1.46086 9.86857 1.27815 9.99099C1.31174 9.81576 1.3301 9.71999 1.35544 9.59369Z" fill="#E8E8EE"/>
<path d="M11.5335 9.7416C11.3715 9.79151 11.2346 9.8585 11.0479 9.94981C11.1476 9.57399 11.1844 9.24758 10.7656 9.07263C11.1423 9.05743 11.4106 8.972 11.4513 8.4845C11.5792 8.84468 11.7046 9.14707 12.1312 9.02718C11.8839 9.29108 11.6872 9.53177 11.8513 9.94909C11.7537 9.88562 11.6561 9.82215 11.5335 9.7416Z" fill="#E9E9EF"/>
<path d="M9.66874 10.9971C9.58913 11.0471 9.53083 11.0797 9.36825 11.1708C9.57165 10.7405 9.5041 10.4553 9.1626 10.2342C9.54717 10.2653 9.75463 10.0892 9.8406 9.67931C9.9287 10.0884 10.1401 10.2584 10.5076 10.2346C10.2163 10.4624 10.1009 10.7186 10.2656 11.0501C10.0584 11.0247 9.87422 11.0022 9.66874 10.9971Z" fill="#E8E8EE"/>
<path d="M9.66876 18.1822C9.58939 18.2326 9.53116 18.2654 9.37061 18.3558C9.56708 17.9287 9.51173 17.6389 9.16895 17.4352C9.51375 17.3972 9.78951 17.3265 9.82855 16.8469C9.92801 17.2739 10.1422 17.4394 10.5068 17.4198C10.2135 17.6474 10.1048 17.9063 10.2662 18.2362C10.0586 18.2104 9.87424 18.1875 9.66876 18.1822Z" fill="#E8E8EE"/>
<path d="M2.22419 16.1944C2.26642 16.2537 2.3007 16.3561 2.29284 16.3605C2.00044 16.5247 2.01811 16.7882 2.15794 17.0948C2.13298 17.1082 2.10801 17.1216 2.08304 17.135C1.96646 17.0576 1.84987 16.9802 1.71213 16.8888C1.59714 16.9637 1.46654 17.0488 1.24839 17.1909C1.41082 16.764 1.37909 16.4759 1.04248 16.2581C1.37127 16.2234 1.66073 16.1684 1.64865 15.6664C1.86891 15.8723 1.83144 16.3264 2.22419 16.1944Z" fill="#E8E9EF"/>
<path d="M12.5225 17.5558C12.5147 17.482 12.5319 17.3776 12.5361 17.3783C12.8565 17.4296 13.0175 17.2476 13.0738 16.8513C13.2142 17.2096 13.3331 17.5401 13.7988 17.3107C13.7808 17.3602 13.7628 17.4097 13.7448 17.4592C13.6399 17.5665 13.5349 17.6738 13.4165 17.7949C13.4496 17.9413 13.4847 18.0971 13.5397 18.3405C13.3488 18.2235 13.219 18.144 13.0882 18.0638C12.9673 18.1473 12.8466 18.2307 12.6564 18.3621C12.7061 18.1129 12.7371 17.9571 12.7715 17.7842C12.698 17.7171 12.6197 17.6457 12.5225 17.5558Z" fill="#E9E9EF"/>
<path d="M7.82637 9.36546C7.72536 9.26632 7.64489 9.18818 7.4834 9.0314C7.89289 9.04068 8.17229 8.98023 8.20186 8.47507C8.29993 8.91281 8.49657 9.10242 8.8773 9.03276C8.66508 9.30294 8.38264 9.50468 8.69608 9.92316C8.65922 9.92935 8.62236 9.93554 8.5855 9.94172C8.46729 9.86611 8.34908 9.79049 8.21826 9.7068C8.10013 9.78389 7.97566 9.8651 7.81362 9.97084C7.82644 9.74563 7.83666 9.56605 7.82637 9.36546Z" fill="#E7E8EE"/>
<path d="M7.86087 16.6011C7.75693 16.4813 7.66551 16.3894 7.48779 16.2106C7.87859 16.2298 8.15978 16.1681 8.18995 15.6882C8.33832 16.0294 8.45114 16.3753 8.91956 16.1328C8.90178 16.1828 8.88399 16.2328 8.86621 16.2828C8.76395 16.3902 8.6126 16.4784 8.57303 16.6104C8.53232 16.7461 8.60064 16.9246 8.63774 17.2122C8.33788 16.8691 8.0812 16.8567 7.78253 17.2541C7.8272 16.9467 7.85029 16.7879 7.86087 16.6011Z" fill="#E9E9EF"/>
<path d="M5.45158 14.0587C5.39016 14.2776 5.35182 14.4789 5.30747 14.7117C5.22248 14.6598 5.09291 14.5807 4.95314 14.4954C4.83621 14.5781 4.71482 14.664 4.49449 14.8199C4.64214 14.391 4.67302 14.0699 4.28369 13.8695C4.65608 13.8825 4.88422 13.7282 4.92102 13.2781C5.20959 13.7702 5.20959 13.7702 5.61518 13.8726C5.56115 13.9373 5.5179 13.9891 5.45158 14.0587Z" fill="#ECECF1"/>
<path d="M13.5042 15.762C13.4724 15.8194 13.416 15.8858 13.3935 15.8732C13.2926 15.8168 13.2013 15.738 13.1001 15.6623C12.9723 15.7512 12.8498 15.8363 12.7274 15.9214C12.8268 15.5381 12.7478 15.2472 12.4146 15.0144C12.8285 15.102 12.9979 14.8695 13.0942 14.4592C13.1894 14.8694 13.3632 15.0967 13.7969 14.9633C13.6079 15.2542 13.286 15.3833 13.5042 15.762Z" fill="#ECECF0"/>
<path d="M7.89918 12.3214C7.85548 12.3261 7.81815 12.3142 7.81835 12.3133C7.89324 11.9795 7.88736 11.6742 7.54443 11.4532C7.94022 11.506 8.11605 11.2894 8.20646 10.8024C8.33476 11.2614 8.45726 11.5675 8.89805 11.4197C8.60005 11.6824 8.4532 11.9494 8.63648 12.3496C8.37257 12.1834 8.15112 12.0024 7.89918 12.3214Z" fill="#EDEDF1"/>
<path d="M4.48404 18.8556C4.41374 18.7888 4.36365 18.7393 4.2583 18.6353C4.46517 18.6088 4.6125 18.5899 4.76309 18.5705C4.82094 18.4192 4.87822 18.2694 4.98705 17.9848C5.05739 18.4786 5.22916 18.7055 5.62813 18.6172C5.36083 18.8699 5.19586 19.1199 5.3919 19.5329C5.10207 19.3179 4.83503 19.2039 4.60048 19.5632C4.46061 19.3139 4.80599 19.0431 4.48404 18.8556Z" fill="#ECECF1"/>
<path d="M9.64763 12.5344C9.71187 12.3814 9.75745 12.2509 9.84071 12.0127C9.96475 12.4099 10.0731 12.7608 10.4069 12.5952C10.3225 12.8934 10.2431 13.174 10.1571 13.4776C9.97943 13.285 9.72391 13.2077 9.44083 13.5368C9.52656 13.1588 9.56263 12.8235 9.1123 12.6807C9.14519 12.6567 9.17807 12.6327 9.21095 12.6088C9.35029 12.5915 9.48964 12.5743 9.64763 12.5344Z" fill="#EBECF0"/>
<path d="M1.93069 12.2534C1.67596 11.9264 1.51986 12.3218 1.26026 12.3361C1.44465 11.9637 1.36739 11.6813 1.03662 11.4667C1.37866 11.4487 1.6485 11.3764 1.68707 10.9034C1.82744 11.2401 1.95013 11.554 2.39598 11.3692C2.31455 11.5089 2.29305 11.5857 2.24763 11.6167C2.06387 11.7421 2.00241 11.8898 2.09852 12.1302C2.15623 12.2745 2.14046 12.4143 1.93069 12.2534Z" fill="#EBECF0"/>
<path d="M15.2133 18.5939C15.2662 18.6467 15.3231 18.7346 15.3133 18.7457C15.2338 18.836 15.1417 18.912 15.0433 19.0015C15.0769 19.1707 15.11 19.3371 15.143 19.5035C14.849 19.2552 14.5928 19.2617 14.2964 19.552C14.4584 19.153 14.3748 18.8661 14.0479 18.6377C14.4382 18.686 14.626 18.4871 14.6893 18.083C14.8789 18.282 14.8312 18.7076 15.2133 18.5939Z" fill="#ECECF0"/>
<path d="M8.65974 18.5937C8.73856 18.6018 8.79092 18.6097 8.91967 18.629C8.63008 18.8826 8.38733 19.1137 8.65429 19.5703C8.33515 19.2186 8.07847 19.2875 7.79034 19.5576C7.93012 19.1653 7.90378 18.866 7.54492 18.6546C7.90465 18.6529 8.13762 18.5252 8.17225 18.0837C8.38455 18.2421 8.29452 18.6856 8.65974 18.5937Z" fill="#EDEEF1"/>
<path d="M6.72449 12.4068C6.88764 12.5078 7.04024 12.58 7.23087 12.6701C7.1395 12.7663 7.03166 12.8798 6.91004 13.0078C6.9436 13.1553 6.97932 13.3124 7.03493 13.5569C6.84519 13.4401 6.71628 13.2995 6.58631 13.2983C6.46186 13.297 6.33632 13.4405 6.108 13.5862C6.28028 13.1605 6.30151 12.8447 5.90332 12.646C6.24361 12.6166 6.53181 12.5698 6.60318 12.1042C6.6401 12.1954 6.67703 12.2866 6.72449 12.4068Z" fill="#EBECF0"/>
<path d="M14.3109 12.2975C14.4422 11.9337 14.3633 11.6682 14.0439 11.4591C14.413 11.4597 14.6706 11.3709 14.6615 10.8623C14.6897 10.8866 14.7179 10.9109 14.7461 10.9352C14.8031 11.0824 14.8601 11.2297 14.9223 11.3905C15.0602 11.4021 15.2036 11.4143 15.4651 11.4364C15.1108 11.6797 14.9555 11.9416 15.1467 12.3756C14.8497 12.0117 14.5858 12.1562 14.3109 12.2975Z" fill="#EBECF0"/>
<path d="M15.0618 14.3499C15.0945 14.4845 15.1188 14.5929 15.1432 14.7013C14.8518 14.4789 14.587 14.46 14.3019 14.7695C14.4336 14.3726 14.3867 14.0809 14.0562 13.8496C14.4468 13.9145 14.6258 13.6971 14.7216 13.2906C14.816 13.7026 14.9923 13.9241 15.3906 13.7966C15.2516 14.014 15.1526 14.1688 15.0618 14.3499Z" fill="#ECEDF1"/>
<path d="M10.8685 18.7487C10.8596 18.6882 10.8748 18.6109 10.8782 18.6115C11.213 18.6776 11.3704 18.4684 11.4645 18.0842C11.5804 18.4359 11.7053 18.7412 12.136 18.6072C11.8482 18.8698 11.7107 19.1434 11.8998 19.5567C11.6071 19.2958 11.3497 19.2095 11.0702 19.617C11.0685 19.2469 11.237 18.9138 10.8685 18.7487Z" fill="#EDEEF1"/>
<path d="M11.36 11.1205C11.3955 11.0399 11.4231 10.9887 11.4884 10.8671C11.5677 11.2852 11.7366 11.5126 12.1249 11.4428C11.8498 11.6878 11.7123 11.9481 11.895 12.3519C11.6159 12.1577 11.3589 11.9922 11.0774 12.3629C11.1528 11.9844 11.1572 11.6603 10.769 11.5066C10.9879 11.3222 11.3244 11.5578 11.36 11.1205Z" fill="#EDEDF1"/>
<path d="M4.58159 11.4075C4.73003 11.2676 4.85108 11.1279 5.00031 10.9557C5.07958 11.2427 5.19519 11.5653 5.62799 11.4155C5.37624 11.6849 5.19316 11.9409 5.38961 12.3612C5.0965 12.0955 4.83158 12.0486 4.54135 12.3147C4.57333 12.1575 4.6053 12.0002 4.64107 11.8243C4.53667 11.7234 4.42646 11.6169 4.26074 11.4567C4.39835 11.4337 4.47628 11.4207 4.58159 11.4075Z" fill="#ECECF1"/>
<path d="M6.52167 15.7052C6.40465 15.7861 6.31098 15.8544 6.11283 15.9989C6.26768 15.569 6.30795 15.2455 5.91992 15.0612C6.24011 14.9991 6.55503 14.9879 6.55718 14.459C6.70668 14.823 6.82717 15.1422 7.25592 14.994C7.01995 15.264 6.75011 15.4893 6.9784 15.9069C6.83394 15.8355 6.68948 15.764 6.52167 15.7052Z" fill="#ECECF1"/>
<path d="M12.8256 12.5769C12.9278 12.4225 13.0025 12.2708 13.1077 12.0574C13.2172 12.4116 13.3156 12.7611 13.7682 12.5785C13.5328 12.871 13.2508 13.0951 13.5529 13.5399C13.2276 13.2972 12.9631 13.1752 12.6974 13.6077C12.6882 13.5653 12.6791 13.523 12.6699 13.4807C12.7043 13.324 12.7387 13.1674 12.775 13.0024C12.6642 12.8924 12.5557 12.7847 12.376 12.6063C12.5697 12.5941 12.6839 12.5868 12.8256 12.5769Z" fill="#ECECF1"/>
<path d="M1.71019 13.3431C1.83856 13.6464 1.95047 13.9403 2.37011 13.8478C2.06193 14.0848 1.9591 14.3579 2.13404 14.76C1.84307 14.5017 1.58705 14.4174 1.31375 14.7715C1.34467 14.4185 1.47092 14.0621 1.02637 13.8728C1.4419 13.9204 1.5857 13.6609 1.71019 13.3431Z" fill="#ECECF0"/>
<path d="M3.47983 13.3671C3.28899 13.3871 3.11964 13.4231 2.9179 13.466C3.07043 13.1335 2.99847 12.8499 2.65137 12.6317C3.0253 12.6524 3.26237 12.5135 3.32563 12.0689C3.44695 12.4398 3.57602 12.7148 3.99049 12.5949C3.75451 12.8641 3.54946 13.1165 3.7196 13.5201C3.64685 13.4744 3.57409 13.4287 3.47983 13.3671Z" fill="#ECEDF1"/>
<path d="M1.7539 18.1603C1.81359 18.5515 2.02995 18.6447 2.36013 18.6318C2.10651 18.8804 1.91508 19.1359 2.14072 19.5621C1.83551 19.2484 1.57898 19.2556 1.29832 19.5575C1.39618 19.175 1.40809 18.861 1.02979 18.6342C1.46768 18.7432 1.56468 18.381 1.7539 18.1603Z" fill="#EDEDF1"/>
<path d="M2.94206 14.987C3.09813 14.8422 3.22733 14.6976 3.37347 14.534C3.44461 14.8508 3.59296 15.1003 3.99791 15.0143C3.68691 15.2536 3.60021 15.544 3.75973 15.9456C3.47165 15.6642 3.2151 15.6055 2.92325 15.9428C3.06253 15.5378 3.00592 15.2479 2.70166 15.0175C2.77284 15.0074 2.84402 14.9973 2.94206 14.987Z" fill="#ECEDF1"/>
<path d="M8.30899 13.4763C8.34549 13.902 8.62778 13.7929 8.92451 13.8455C8.62679 14.0756 8.44691 14.3181 8.63193 14.7301C8.33681 14.4899 8.07713 14.4485 7.80508 14.7734C7.89641 14.3986 7.93381 14.0758 7.55225 13.8826C7.8593 13.8395 8.123 13.7925 8.15196 13.3992C8.20043 13.4158 8.24889 13.4323 8.30899 13.4763Z" fill="#ECECF0"/>
<path d="M9.53291 15.8872C9.48384 15.8717 9.43039 15.8282 9.43533 15.8163C9.56916 15.4922 9.46664 15.2582 9.18555 15.0373C9.54193 15.0568 9.76603 14.9098 9.82088 14.4834C9.96035 14.8257 10.0839 15.1283 10.5005 15.008C10.2082 15.2719 10.0786 15.5369 10.2838 15.926C10.0083 15.7812 9.78939 15.5513 9.53291 15.8872Z" fill="#ECECF1"/>
<path d="M10.8809 13.9703C10.8664 13.9107 10.871 13.8699 10.8757 13.829C11.2123 13.8986 11.368 13.6826 11.4623 13.3017C11.5829 13.6496 11.7103 13.9541 12.1411 13.8386C11.8087 14.0765 11.7374 14.3604 11.8902 14.7587C11.6111 14.522 11.3544 14.4057 11.0725 14.8191C11.0755 14.4476 11.2442 14.1273 10.8809 13.9703Z" fill="#EDEDF1"/>
</g>
<defs>
<clipPath id="clip0_47_216">
<rect width="35" height="40" fill="white"/>
</clipPath>
</defs>
</svg>
