<svg width="35" height="40" viewBox="0 0 35 40" fill="none" xmlns="http://www.w3.org/2000/svg">
<g clip-path="url(#clip0_47_188)">
<path d="M19.3338 33.1877C18.1776 33.1893 17.0214 33.1909 15.8262 33.1686C15.7783 33.1327 15.7695 33.1209 15.7632 33.0737C15.7658 29.4257 15.7658 25.8132 15.7658 22.1354C15.4816 22.1354 15.2342 22.1354 14.9869 22.1354C10.1497 22.1354 5.31259 22.1356 0.475431 22.1343C0.339739 22.1343 0.20405 22.118 0.0683594 22.1094C0.0683594 20.7796 0.0683594 19.4499 0.0993287 18.073C5.0622 18.0241 9.99409 18.0223 14.926 18.0197C15.0967 18.0196 15.2687 17.993 15.4378 18.0099C15.6942 18.0354 15.7716 17.9132 15.771 17.6301C15.7631 14.1025 15.7626 10.5749 15.7737 7.02958C15.7924 6.9974 15.7977 6.98296 15.8029 6.96853C16.9591 6.96692 18.1153 6.96531 19.3105 6.9877C19.3584 7.02353 19.3672 7.03537 19.3735 7.08258C19.3756 10.6036 19.3851 14.0893 19.3777 17.5749C19.3769 17.9349 19.461 18.0294 19.7749 18.0287C24.7256 18.0175 29.6764 18.0206 34.6272 18.022C34.7742 18.022 34.9213 18.0382 35.0684 18.0469C35.0684 19.3766 35.0684 20.7064 35.0373 22.083C31.2944 22.1317 27.5825 22.1337 23.8706 22.1353C22.4815 22.1359 21.0924 22.1379 19.7032 22.1327C19.5006 22.132 19.3623 22.136 19.3633 22.452C19.3741 26.0044 19.3736 29.5568 19.3627 33.127C19.3442 33.159 19.339 33.1734 19.3338 33.1877Z" fill="#FF4B55"/>
<path d="M15.7602 7.04733C15.7626 10.5749 15.7631 14.1025 15.771 17.6301C15.7716 17.9132 15.6942 18.0354 15.4378 18.0099C15.2687 17.993 15.0967 18.0196 14.926 18.0197C9.99409 18.0223 5.0622 18.0241 0.0993288 18.0364C0.0683594 17.6025 0.0683594 17.1581 0.100345 16.6749C3.27536 16.6361 6.41839 16.6361 9.56142 16.6361C9.56494 16.6117 9.56845 16.5873 9.57197 16.5628C6.4041 14.1929 3.23623 11.823 0.0683594 9.45313C0.0683594 9.13871 0.0683594 8.82429 0.090003 8.48355C3.68186 11.107 7.25182 13.7573 10.8233 16.4048C10.945 16.4951 11.0804 16.6198 11.212 16.6241C11.8894 16.6463 12.5676 16.6344 13.3338 16.6344C13.1423 16.4864 13.0251 16.3927 12.9052 16.3038C9.96484 14.1219 7.02305 11.9425 4.0842 9.75796C2.87347 8.85799 1.66893 7.94712 0.461573 7.0412C0.474636 7.03899 0.487699 7.03677 0.55329 7.03318C1.54513 7.03035 2.48445 7.0289 3.44548 7.03694C7.1464 9.80125 10.8256 12.5561 14.5557 15.349C14.5557 14.9928 14.5553 14.7115 14.5558 14.4302C14.5604 11.9578 14.5652 9.48537 14.6011 7.01566C15.0082 7.028 15.3842 7.03766 15.7602 7.04733Z" fill="#F4F4F4"/>
<path d="M19.3761 33.1093C19.3736 29.5568 19.3741 26.0044 19.3633 22.452C19.3623 22.136 19.5006 22.132 19.7033 22.1327C21.0924 22.1379 22.4815 22.1359 23.8706 22.1353C27.5825 22.1337 31.2944 22.1317 35.0374 22.1196C35.0684 22.5538 35.0684 22.9981 35.0364 23.4814C31.8615 23.5203 28.7186 23.5203 25.5756 23.5203C25.5721 23.5447 25.5687 23.569 25.5652 23.5933C28.7329 25.9633 31.9006 28.3332 35.0684 30.7031C35.0684 31.0695 35.0684 31.4358 35.0442 31.8389C34.9422 31.8223 34.863 31.7714 34.7868 31.715C31.3316 29.1526 27.8713 26.5992 24.4279 24.0162C23.9479 23.6562 23.481 23.4567 22.9086 23.5125C22.4899 23.5534 22.0656 23.5205 21.5495 23.5205C21.714 23.6521 21.7865 23.7138 21.8622 23.7699C24.725 25.8946 27.5892 28.0167 30.4506 30.1439C31.7755 31.1289 33.0948 32.1237 34.3821 33.1175C33.4693 33.1237 32.591 33.1263 31.6911 33.1195C27.9902 30.3552 24.3111 27.6004 20.5812 24.8076C20.5812 25.1899 20.5817 25.4972 20.5811 25.8045C20.5765 28.2508 20.5717 30.6971 20.5357 33.1408C20.1284 33.1285 19.7523 33.1189 19.3761 33.1093Z" fill="#F5F2F3"/>
<path d="M0.0683594 22.1459C0.20405 22.118 0.339739 22.1343 0.475431 22.1343C5.31259 22.1356 10.1497 22.1354 14.9869 22.1354C15.2342 22.1354 15.4816 22.1354 15.7658 22.1354C15.7658 25.8132 15.7658 29.4257 15.7343 33.0813C15.3252 33.1307 14.9475 33.137 14.5639 33.1062C14.558 30.337 14.558 27.605 14.558 24.8068C13.6475 25.4879 12.8024 26.1205 11.9568 26.7524C9.11264 28.8781 6.26831 31.0035 3.39161 33.1273C2.78181 33.1234 2.20443 33.1213 1.63994 33.0968C5.91304 29.9114 10.1732 26.7485 14.5211 23.5205C13.8125 23.5205 13.2127 23.5052 12.6141 23.5294C12.4226 23.5372 12.2083 23.6036 12.0485 23.7213C9.55174 25.5599 7.06321 27.4133 4.57051 29.2592C3.07181 30.3691 1.56921 31.4721 0.0683594 32.5781C0.0683594 31.9775 0.0683594 31.3769 0.0891616 30.7281C3.26524 28.3153 6.42052 25.9506 9.5758 23.5859C9.56902 23.5625 9.56225 23.539 9.55547 23.5156C6.3931 23.5156 3.23073 23.5156 0.0683594 23.5156C0.0683594 23.0712 0.0683594 22.6269 0.0683594 22.1459Z" fill="#F5F2F3"/>
<path d="M35.0681 18.0103C34.9211 18.0382 34.774 18.022 34.6269 18.022C29.6762 18.0206 24.7254 18.0175 19.7746 18.0287C19.4608 18.0294 19.3767 17.9348 19.3774 17.5749C19.3849 14.0893 19.3754 10.6036 19.4021 7.07494C19.8113 7.02557 20.189 7.01921 20.5726 7.0501C20.5784 9.8193 20.5784 12.5513 20.5784 15.3495C21.489 14.6683 22.3341 14.0357 23.1797 13.4038C26.0239 11.2782 28.8682 9.15277 31.745 7.02904C32.3269 7.05168 32.8763 7.07256 33.4071 7.1098C29.1509 10.2731 24.9135 13.4201 20.676 16.567C21.3005 16.6357 21.8927 16.6511 22.4836 16.6269C22.6753 16.619 22.8902 16.5542 23.0499 16.4364C26.3015 14.0368 29.5454 11.6237 32.7939 9.21867C33.5462 8.66168 34.3097 8.12445 35.0681 7.57812C35.0681 8.17872 35.0681 8.77931 35.0473 9.4281C31.8712 11.841 28.716 14.2057 25.5607 16.5704C25.5675 16.5938 25.5742 16.6172 25.581 16.6406C28.7434 16.6406 31.9058 16.6406 35.0681 16.6406C35.0681 17.085 35.0681 17.5294 35.0681 18.0103Z" fill="#F5F2F3"/>
<path d="M35.0685 16.604C31.9061 16.6406 28.7437 16.6406 25.5814 16.6406C25.5746 16.6172 25.5678 16.5938 25.561 16.5704C28.7163 14.2057 31.8716 11.841 35.0477 9.46471C35.0685 11.8246 35.0685 14.196 35.0685 16.604Z" fill="#42489C"/>
<path d="M35.0681 30.6665C31.9004 28.3332 28.7327 25.9633 25.5649 23.5933C25.5684 23.569 25.5719 23.5447 25.5754 23.5203C28.7183 23.5203 31.8613 23.5203 35.0362 23.518C35.0681 25.8871 35.0681 28.2585 35.0681 30.6665Z" fill="#42489C"/>
<path d="M0.0683594 23.5522C3.23073 23.5156 6.3931 23.5156 9.55547 23.5156C9.56225 23.539 9.56902 23.5625 9.5758 23.5859C6.42052 25.9506 3.26524 28.3153 0.0891615 30.6915C0.0683594 28.3317 0.0683594 25.9603 0.0683594 23.5522Z" fill="#42489C"/>
<path d="M0.0683594 9.48974C3.23623 11.823 6.4041 14.1929 9.57197 16.5628C9.56846 16.5873 9.56494 16.6117 9.56142 16.6361C6.41839 16.6361 3.27536 16.6361 0.100345 16.6383C0.0683594 14.2692 0.0683594 11.8978 0.0683594 9.48974Z" fill="#42489C"/>
<path d="M35.0684 7.54883C34.31 8.12445 33.5465 8.66168 32.7941 9.21867C29.5456 11.6237 26.3017 14.0368 23.0501 16.4364C22.8905 16.5542 22.6756 16.619 22.4838 16.6269C21.8929 16.6512 21.3008 16.6358 20.6763 16.567C24.9137 13.4201 29.1511 10.2731 33.4262 7.10481C33.5025 7.0442 33.5412 7.00494 33.5798 6.96568C33.8596 6.96453 34.1396 6.97292 34.4189 6.95954C34.6926 6.94643 34.8939 7.05954 35.0437 7.34222C35.0684 7.40234 35.0684 7.46094 35.0684 7.54883Z" fill="#FF4E58"/>
<path d="M0.0683594 32.6074C1.56921 31.4721 3.07181 30.3691 4.57051 29.2592C7.06321 27.4133 9.55174 25.5599 12.0485 23.7213C12.2083 23.6036 12.4226 23.5372 12.6141 23.5294C13.2127 23.5052 13.8125 23.5205 14.5211 23.5205C10.1732 26.7485 5.91304 29.9114 1.62138 33.0993C1.55979 33.1481 1.52965 33.172 1.49951 33.1958C1.24062 33.1952 0.98138 33.1848 0.72293 33.1967C0.44903 33.2093 0.243231 33.102 0.0928728 32.8147C0.0683594 32.7539 0.0683594 32.6953 0.0683594 32.6074Z" fill="#FF4E58"/>
<path d="M34.4165 33.114C33.0946 32.1236 31.7753 31.1288 30.4505 30.1439C27.5891 28.0167 24.7248 25.8946 21.862 23.7699C21.7864 23.7138 21.7139 23.6521 21.5493 23.5205C22.0654 23.5205 22.4897 23.5534 22.9085 23.5125C23.4809 23.4567 23.9478 23.6562 24.4277 24.0162C27.8711 26.5992 31.3315 29.1526 34.7867 31.7149C34.8628 31.7714 34.9421 31.8222 35.0441 31.8754C35.0682 32.1635 35.0682 32.452 35.0682 32.7765C34.9082 32.9354 34.7483 33.0583 34.5534 33.1703C34.4844 33.1443 34.4504 33.1292 34.4165 33.114Z" fill="#FF4E57"/>
<path d="M0.438231 7.04337C1.66893 7.94712 2.87347 8.85799 4.0842 9.75796C7.02305 11.9425 9.96484 14.1219 12.9052 16.3038C13.0251 16.3927 13.1423 16.4864 13.3338 16.6344C12.5676 16.6344 11.8894 16.6463 11.212 16.6241C11.0804 16.6198 10.945 16.4951 10.8233 16.4048C7.25182 13.7573 3.68186 11.107 0.090003 8.44737C0.0683594 8.09712 0.0683594 7.75673 0.0683594 7.38005C0.183869 7.24434 0.299379 7.14494 0.438231 7.04337Z" fill="#FF4D57"/>
<path d="M14.5698 7.01298C14.5651 9.48537 14.5603 11.9578 14.5557 14.4302C14.5552 14.7115 14.5556 14.9928 14.5556 15.349C10.8255 12.5561 7.14631 9.80125 3.44347 7.01982C3.41985 6.99321 3.42602 6.95943 3.42602 6.95943C7.11807 6.95931 10.8101 6.9592 14.5313 6.97784C14.5604 6.99661 14.5698 7.01298 14.5698 7.01298Z" fill="#42489B"/>
<path d="M31.7128 7.02727C28.8685 9.15277 26.0241 11.2782 23.1799 13.4038C22.3344 14.0357 21.4893 14.6683 20.5787 15.3495C20.5787 12.5513 20.5787 9.8193 20.5775 7.0421C20.5762 6.99685 20.5718 6.97796 20.5718 6.97796C20.6619 6.96964 20.752 6.95404 20.8422 6.95403C24.444 6.95343 28.0459 6.95424 31.6822 6.97403C31.7167 6.9932 31.7128 7.02727 31.7128 7.02727Z" fill="#42489B"/>
<path d="M3.3938 6.95655C3.4263 6.95943 3.42013 6.99321 3.42204 7.01033C2.48464 7.02889 1.54532 7.03034 0.573242 7.03163C0.65714 7.00541 0.773674 6.95769 0.890487 6.95678C1.71406 6.95035 2.53769 6.95355 3.3938 6.95655Z" fill="#CDCEE1"/>
<path d="M31.7454 7.02904C31.713 7.02728 31.7169 6.9932 31.7139 6.97637C32.3119 6.95867 32.9129 6.9578 33.547 6.96131C33.5413 7.00494 33.5026 7.0442 33.4451 7.08844C32.8767 7.07256 32.3273 7.05168 31.7454 7.02904Z" fill="#CFCDDE"/>
<path d="M20.5409 6.97315C20.5718 6.97797 20.5763 6.99686 20.5716 7.00486C20.1893 7.01921 19.8116 7.02557 19.405 7.03957C19.3673 7.03537 19.3585 7.02353 19.3418 6.99012C19.726 6.96848 20.118 6.9684 20.5409 6.97315Z" fill="#F5A9B0"/>
<path d="M14.6011 7.01565C14.57 7.01298 14.5606 6.99661 14.5628 6.98729C14.9559 6.97233 15.3467 6.96668 15.7702 6.96478C15.7977 6.98296 15.7925 6.9974 15.7738 7.02958C15.3843 7.03766 15.0083 7.028 14.6011 7.01565Z" fill="#F5A9B0"/>
<path d="M20.5669 33.1434C20.5716 30.6971 20.5765 28.2508 20.5811 25.8045C20.5817 25.4972 20.5812 25.1899 20.5812 24.8076C24.3111 27.6004 27.9902 30.3552 31.693 33.1365C31.7167 33.163 31.7106 33.1967 31.7106 33.1967C28.0186 33.1969 24.3265 33.197 20.6053 33.1785C20.5762 33.1597 20.5669 33.1434 20.5669 33.1434Z" fill="#42489B"/>
<path d="M3.42396 33.129C6.26824 31.0035 9.11257 28.8781 11.9568 26.7524C12.8023 26.1205 13.6474 25.4879 14.558 24.8068C14.558 27.605 14.558 30.337 14.5592 33.1142C14.5604 33.1594 14.5649 33.1783 14.5649 33.1783C14.4748 33.1866 14.3846 33.2022 14.2945 33.2022C10.6927 33.2028 7.09082 33.202 3.45453 33.1822C3.42008 33.163 3.42396 33.129 3.42396 33.129Z" fill="#42489B"/>
<path d="M31.7433 33.1996C31.7108 33.1967 31.7168 33.163 31.7148 33.146C32.5911 33.1263 33.4694 33.1237 34.3822 33.1175C34.4507 33.1292 34.4847 33.1443 34.531 33.1757C33.6208 33.1954 32.6983 33.1989 31.7433 33.1996Z" fill="#CFCCDE"/>
<path d="M3.3918 33.1273C3.42422 33.129 3.42035 33.163 3.42333 33.1798C2.80553 33.1987 2.18474 33.2007 1.53183 33.1993C1.52984 33.172 1.55998 33.1481 1.60868 33.1217C2.20462 33.1213 2.782 33.1234 3.3918 33.1273Z" fill="#CECCDF"/>
<path d="M14.5958 33.1831C14.5649 33.1783 14.5604 33.1594 14.565 33.1514C14.9474 33.137 15.3251 33.1307 15.7317 33.1167C15.7694 33.1209 15.7782 33.1327 15.7949 33.1661C15.4107 33.1878 15.0187 33.1878 14.5958 33.1831Z" fill="#F5A9B0"/>
<path d="M20.5355 33.1408C20.5667 33.1434 20.576 33.1597 20.5738 33.169C20.1808 33.1839 19.7899 33.1896 19.3664 33.1915C19.3388 33.1734 19.344 33.159 19.3626 33.127C19.7521 33.1189 20.1282 33.1285 20.5355 33.1408Z" fill="#F5A9B0"/>
</g>
<defs>
<clipPath id="clip0_47_188">
<rect width="35" height="40" fill="white"/>
</clipPath>
</defs>
</svg>
