<svg width="35" height="40" viewBox="0 0 35 40" fill="none" xmlns="http://www.w3.org/2000/svg">
<g clip-path="url(#clip0_47_114)">
<path d="M35.0684 7.34376C35.0684 15.809 35.0684 24.2742 35.0452 32.7855C34.9049 33.1676 34.6618 33.2056 34.386 33.2055C23.1806 33.2028 11.9752 33.2018 0.769828 33.2101C0.456895 33.2103 0.234047 33.1025 0.0683594 32.8125C0.0683594 24.3473 0.0683594 15.8821 0.091503 7.37072C0.231836 6.98867 0.474926 6.95068 0.750724 6.95074C11.9561 6.9535 23.1615 6.95444 34.3669 6.94615C34.6798 6.94592 34.9027 7.05374 35.0684 7.34376ZM14.9752 27.5542C15.0361 27.479 15.0971 27.4037 15.2214 27.2501C14.9551 27.2334 14.787 27.1981 14.624 27.218C14.359 27.2504 14.2301 27.1291 14.1732 26.8393C14.1366 26.6533 14.0556 26.4787 13.9944 26.2991C13.9598 26.3041 13.9252 26.3091 13.8907 26.314C13.833 26.4895 13.7563 26.6603 13.7221 26.8415C13.6666 27.1347 13.5316 27.2472 13.269 27.2184C13.1018 27.2 12.9298 27.2391 12.76 27.2525C12.752 27.2897 12.744 27.3269 12.7361 27.3642C12.8261 27.452 12.9049 27.5673 13.0083 27.6229C13.3736 27.8193 13.416 28.1105 13.2528 28.4984C13.2035 28.6154 13.2003 28.7578 13.176 28.8885C13.2007 28.9092 13.2254 28.93 13.2501 28.9507C13.396 28.8421 13.5557 28.7513 13.6845 28.6207C13.8702 28.4322 14.0242 28.4347 14.2101 28.6202C14.3429 28.7527 14.5053 28.8464 14.7331 29.0158C14.6918 28.4288 14.2704 27.8757 14.9752 27.5542ZM21.0384 28.4988C21.0127 28.63 20.987 28.7612 20.9614 28.8923C20.9859 28.9145 21.0105 28.9366 21.0351 28.9587C21.1901 28.841 21.3567 28.7387 21.4973 28.6016C21.6633 28.4397 21.7986 28.4272 21.9686 28.5956C22.1082 28.7338 22.2753 28.8357 22.4301 28.9538C22.4606 28.9304 22.491 28.907 22.5214 28.8837C22.4717 28.6802 22.435 28.4709 22.3687 28.2747C22.2919 28.0475 22.3204 27.8906 22.5115 27.7574C22.6689 27.6476 22.8061 27.4997 22.9522 27.3687C22.8321 27.251 22.7397 27.2228 22.6462 27.2175C22.0859 27.1857 22.0874 27.1868 21.885 26.5724C21.8536 26.4772 21.8005 26.3913 21.7126 26.2071C21.6279 26.4581 21.5588 26.5952 21.5368 26.7416C21.4807 27.1147 21.3111 27.2695 20.9757 27.2199C20.8346 27.1991 20.6856 27.2485 20.5048 27.2703C20.7055 27.7145 21.3961 27.7703 21.0384 28.4988ZM16.9852 12.1901C16.9764 12.2914 16.9677 12.3927 16.9501 12.5954C17.1695 12.4302 17.3228 12.3441 17.4433 12.2173C17.6404 12.0101 17.8034 12.0228 17.9971 12.2246C18.1204 12.353 18.2792 12.4367 18.4221 12.5405C18.4471 12.5145 18.4722 12.4885 18.4972 12.4625C18.452 12.2685 18.4235 12.0666 18.3573 11.8825C18.2698 11.6393 18.3001 11.4742 18.5061 11.333C18.6626 11.2257 18.7964 11.0751 19.0123 10.8781C18.8235 10.8373 18.7349 10.79 18.6558 10.8057C18.1966 10.8967 17.9268 10.7087 17.8631 10.1621C17.852 10.0675 17.7799 9.98222 17.7 9.81917C17.6293 10 17.5887 10.0881 17.5595 10.1808C17.3705 10.7807 17.3713 10.7784 16.8255 10.8029C16.7256 10.8074 16.6266 10.8429 16.4445 10.8818C16.5864 11.0282 16.6481 11.1275 16.732 11.1724C17.1275 11.3842 17.2068 11.7024 16.9852 12.1901ZM11.1143 19.7911C11.0314 19.7613 10.943 19.6936 10.8664 19.7079C10.4086 19.7936 10.1351 19.614 10.0748 19.0627C10.0646 18.9693 9.9909 18.885 9.89782 18.6994C9.80613 18.9899 9.73248 19.1636 9.69784 19.3469C9.64537 19.6246 9.51903 19.732 9.26928 19.705C9.09798 19.6865 8.92222 19.7218 8.74845 19.733C8.73321 19.7742 8.71796 19.8153 8.70272 19.8565C8.84739 19.9852 8.98143 20.1354 9.13935 20.2373C9.35154 20.3742 9.37736 20.5377 9.29012 20.7802C9.22158 20.9707 9.18961 21.1784 9.14139 21.3784C9.17074 21.3985 9.20009 21.4186 9.22945 21.4388C9.36757 21.3372 9.52387 21.2572 9.63985 21.1293C9.84882 20.899 10.0221 20.9328 10.2238 21.138C10.3431 21.2593 10.4945 21.3394 10.6291 21.4363C10.67 21.3672 10.6974 21.3375 10.6926 21.3267C10.3977 20.6688 10.6016 20.2007 11.1143 19.7911ZM17.0469 28.6017C16.8764 28.6144 16.706 28.6271 16.5355 28.6398C16.523 28.682 16.5104 28.7242 16.4979 28.7664C16.7143 28.958 16.9307 29.1495 17.15 29.3437C17.0755 29.6654 17.0039 29.9744 16.9323 30.2834C16.9632 30.3027 16.9941 30.3221 17.0251 30.3414C17.172 30.2302 17.3314 30.1353 17.4629 30.0039C17.6386 29.8284 17.7832 29.8151 17.9634 29.9992C18.0985 30.1371 18.2656 30.2341 18.4185 30.3494C18.4463 30.3243 18.4741 30.2993 18.5019 30.2743C18.4523 30.0694 18.4191 29.8567 18.3488 29.6615C18.2641 29.4264 18.3135 29.2777 18.4967 29.1446C18.6527 29.0312 18.7904 28.8849 18.9362 28.7531C18.9263 28.7025 18.9163 28.6519 18.9064 28.6013C18.7128 28.6013 18.5182 28.5872 18.3258 28.6052C18.1225 28.6242 18.016 28.5452 17.9672 28.3111C17.9231 28.0998 17.8382 27.8996 17.7712 27.6945C17.734 27.6991 17.6968 27.7037 17.6595 27.7084C17.5937 27.9074 17.5105 28.1015 17.4667 28.3067C17.4172 28.5385 17.3134 28.6398 17.0469 28.6017ZM25.4297 20.9661C25.5757 21.0436 25.7235 21.1168 25.867 21.2C25.987 21.2696 26.1018 21.3509 26.2188 21.427C26.2406 21.1738 26.2207 20.979 26.1522 20.81C26.0374 20.5271 26.1101 20.3561 26.3316 20.2048C26.4746 20.107 26.5928 19.9616 26.7221 19.8375C26.7079 19.8011 26.6937 19.7647 26.6795 19.7282C26.5036 19.7185 26.326 19.6871 26.1521 19.7045C25.9195 19.7277 25.7969 19.6423 25.7448 19.3713C25.7064 19.1722 25.6139 18.9868 25.5455 18.7953C25.5127 18.7987 25.48 18.8021 25.4472 18.8055C25.3895 18.9817 25.3125 19.1533 25.2784 19.3353C25.2227 19.6328 25.0823 19.7362 24.8215 19.7054C24.6568 19.6859 24.4868 19.7239 24.3192 19.7362C24.3124 19.7781 24.3056 19.8201 24.2987 19.8621C24.4454 19.9957 24.5834 20.1451 24.7411 20.2587C24.9143 20.3833 24.9591 20.5174 24.8797 20.7387C24.8065 20.9425 24.7702 21.1637 24.7177 21.3773C24.7502 21.4024 24.7828 21.4276 24.8154 21.4527C25.0067 21.3019 25.198 21.151 25.4297 20.9661ZM13.9238 10.9174C13.8458 11.1135 13.7441 11.3023 13.696 11.5075C13.6416 11.7396 13.5408 11.8229 13.3359 11.8023C13.1515 11.7838 12.9645 11.7984 12.7787 11.7984C12.7622 11.8464 12.7456 11.8943 12.729 11.9423C12.9481 12.145 13.1672 12.3476 13.3825 12.5469C13.306 12.867 13.2333 13.1713 13.1606 13.4755C13.1882 13.4966 13.2158 13.5178 13.2433 13.539C13.39 13.4298 13.5498 13.3375 13.6803 13.2072C13.8662 13.0217 14.0213 13.0081 14.2104 13.2037C14.339 13.3366 14.5008 13.4275 14.6478 13.5372C14.6749 13.5174 14.702 13.4976 14.7292 13.4778C14.6856 13.2859 14.6647 13.0822 14.5934 12.9049C14.4803 12.6235 14.5498 12.4534 14.7702 12.3024C14.9131 12.2045 15.0313 12.0595 15.1606 11.9356C15.1461 11.8994 15.1316 11.8631 15.1171 11.8268C14.8516 11.8107 14.5196 11.8997 14.3385 11.7501C14.1426 11.5883 14.0874 11.2038 13.9238 10.9174ZM21.4548 13.2243C21.6363 13.0141 21.8103 13.0043 22.0101 13.2116C22.1361 13.3424 22.2965 13.4299 22.4414 13.5368C22.4673 13.515 22.4932 13.4933 22.519 13.4716C22.4471 13.1565 22.3751 12.8413 22.3055 12.5367C22.5362 12.3287 22.7474 12.1384 22.9586 11.9481C22.9399 11.9066 22.9211 11.8652 22.9024 11.8238C22.738 11.8154 22.5709 11.7815 22.4099 11.8046C22.1421 11.8429 22.0201 11.7118 21.9619 11.4281C21.9236 11.2415 21.8458 11.0655 21.7857 10.8847C21.654 10.9895 21.6123 11.0757 21.5829 11.1671C21.385 11.7816 21.3858 11.7803 20.8271 11.8019C20.7356 11.8054 20.6448 11.8306 20.5536 11.8458C20.5447 11.8801 20.5357 11.9143 20.5267 11.9486C20.6617 12.074 20.7849 12.2234 20.9344 12.3195C21.1596 12.4642 21.1788 12.6422 21.0923 12.8951C21.0282 13.0825 21.0026 13.287 20.9598 13.484C20.9919 13.5006 21.0239 13.5172 21.0559 13.5338C21.1754 13.4425 21.2949 13.3513 21.4548 13.2243ZM11.6951 16.7343C11.8778 16.8047 11.8911 16.6981 11.8502 16.5386C11.8118 16.3891 11.7845 16.2334 11.7283 16.093C11.6404 15.8734 11.6908 15.734 11.8648 15.6074C12.027 15.4895 12.1703 15.3378 12.322 15.201C12.3081 15.1649 12.2943 15.1288 12.2804 15.0927C12.1619 15.0837 12.039 15.0471 11.9257 15.0708C11.5292 15.1537 11.3405 14.9513 11.2768 14.5216C11.2575 14.3908 11.1882 14.2696 11.142 14.1447C11.0836 14.1712 11.0538 14.1736 11.0436 14.191C10.7517 14.6862 10.3985 14.9844 9.8669 15.1489C9.95929 15.2556 10.0239 15.348 10.1032 15.4188C10.5329 15.8022 10.5321 15.7997 10.3792 16.4145C10.3524 16.5222 10.351 16.6381 10.3244 16.8641C10.6456 16.6166 10.8758 16.4393 11.1045 16.2631C11.3006 16.4221 11.4766 16.5649 11.6951 16.7343ZM23.9416 15.0642C23.7584 15.0745 23.5752 15.0847 23.392 15.0949C23.3842 15.1299 23.3764 15.1649 23.3686 15.2C23.505 15.3263 23.6305 15.4743 23.7805 15.5739C24.0005 15.7199 24.0385 15.8905 23.9399 16.1517C23.8705 16.3354 23.8478 16.5422 23.8043 16.7387C23.8353 16.7559 23.8662 16.7731 23.8972 16.7903C24.0079 16.7096 24.1199 16.6311 24.229 16.5477C24.3489 16.456 24.4661 16.3598 24.5884 16.2625C24.7171 16.3652 24.8265 16.4573 24.94 16.542C25.0559 16.6284 25.1759 16.7077 25.3078 16.7996C25.3369 16.7068 25.3606 16.6694 25.3564 16.6367C25.3467 16.5607 25.3248 16.4866 25.3058 16.4123C25.1495 15.8007 25.1506 15.8026 25.5803 15.4189C25.6596 15.3481 25.724 15.2556 25.7953 15.1731C25.7834 15.1369 25.7715 15.1008 25.7596 15.0646C25.5951 15.0646 25.4285 15.0453 25.2666 15.069C25.002 15.1077 24.8735 14.9825 24.8152 14.6941C24.7766 14.503 24.695 14.3233 24.6326 14.1385C24.5967 14.1386 24.5609 14.1388 24.525 14.1389C24.4563 14.3637 24.3788 14.5856 24.3216 14.8142C24.2728 15.0092 24.1765 15.0944 23.9416 15.0642ZM10.9941 23.1676C10.959 23.2772 10.9076 23.3837 10.8916 23.4968C10.8392 23.8671 10.6703 24.0283 10.3345 23.9722C10.1988 23.9496 10.0555 23.9858 9.9157 23.9952C9.90443 24.0297 9.89316 24.0642 9.8819 24.0987C10.0143 24.2229 10.1354 24.3694 10.2817 24.4663C10.5123 24.619 10.5491 24.8044 10.4485 25.0737C10.3828 25.2498 10.3564 25.4451 10.3123 25.6318C10.3425 25.6532 10.3727 25.6746 10.4029 25.696C10.6342 25.5222 10.8656 25.3485 11.0995 25.1728C11.3344 25.3506 11.5638 25.5243 11.7933 25.6979C11.8234 25.675 11.8536 25.6521 11.8838 25.6292C11.833 25.417 11.799 25.197 11.7269 24.9947C11.6477 24.7727 11.6894 24.6365 11.8642 24.5094C12.0264 24.3915 12.1682 24.2372 12.3451 24.0749C12.2533 24.016 12.2232 23.9792 12.1982 23.9832C11.6583 24.0694 11.2788 23.9004 11.2058 23.2035C11.2019 23.1663 11.0835 23.1448 10.9941 23.1676ZM23.8336 25.4381C23.7748 25.7183 23.8905 25.7083 24.0451 25.5945C24.2258 25.4614 24.3977 25.3126 24.5742 25.17C24.8205 25.3508 25.0572 25.5246 25.2939 25.6984C25.3184 25.6712 25.3429 25.644 25.3673 25.6168C25.3456 25.5097 25.342 25.3917 25.299 25.2972C25.1033 24.8672 25.1688 24.5489 25.5654 24.3277C25.6574 24.2763 25.7174 24.1499 25.7921 24.058C25.5934 23.9663 25.4349 23.9463 25.2817 23.9706C25.0006 24.0153 24.8661 23.8831 24.8092 23.5734C24.7753 23.3887 24.688 23.2168 24.6246 23.0391C24.4908 23.1718 24.4282 23.2836 24.4108 23.4039C24.3468 23.8476 24.1497 24.0564 23.7409 23.9729C23.6304 23.9504 23.51 23.9911 23.3941 24.0028C23.3652 24.0568 23.3362 24.1108 23.3073 24.1648C23.3902 24.2075 23.4845 24.2335 23.5542 24.2957C24.0284 24.7184 24.0267 24.7208 23.8336 25.4381Z" fill="#41479B"/>
<path d="M14.9548 27.5701C14.2701 27.8757 14.6916 28.4288 14.7328 29.0158C14.5051 28.8464 14.3426 28.7527 14.2098 28.6202C14.024 28.4347 13.87 28.4322 13.6843 28.6207C13.5555 28.7513 13.3957 28.8421 13.2498 28.9507C13.2251 28.93 13.2004 28.9092 13.1758 28.8885C13.2001 28.7578 13.2033 28.6154 13.2525 28.4984C13.4158 28.1105 13.3733 27.8193 13.0081 27.6229C12.9047 27.5673 12.8259 27.452 12.7358 27.3642C12.7438 27.3269 12.7518 27.2897 12.7597 27.2525C12.9296 27.2391 13.1016 27.2 13.2688 27.2184C13.5314 27.2472 13.6664 27.1347 13.7218 26.8415C13.7561 26.6602 13.8328 26.4895 13.8904 26.314C13.925 26.309 13.9596 26.3041 13.9942 26.2991C14.0553 26.4787 14.1364 26.6533 14.173 26.8393C14.2299 27.1291 14.3588 27.2504 14.6237 27.218C14.7867 27.1981 14.9549 27.2333 15.2212 27.2501C15.0969 27.4036 15.0359 27.4789 14.9548 27.5701Z" fill="#F7DB5D"/>
<path d="M21.0451 28.4699C21.3962 27.7703 20.7056 27.7145 20.5049 27.2703C20.6857 27.2485 20.8348 27.1991 20.9758 27.2199C21.3112 27.2695 21.4808 27.1147 21.5369 26.7416C21.559 26.5952 21.6281 26.4581 21.7127 26.2071C21.8007 26.3913 21.8537 26.4772 21.8851 26.5724C22.0875 27.1868 22.086 27.1857 22.6464 27.2175C22.7398 27.2228 22.8323 27.251 22.9523 27.3687C22.8062 27.4997 22.6691 27.6476 22.5116 27.7574C22.3205 27.8906 22.292 28.0475 22.3688 28.2747C22.4351 28.4709 22.4718 28.6802 22.5216 28.8837C22.4911 28.907 22.4607 28.9304 22.4303 28.9538C22.2754 28.8357 22.1083 28.7338 21.9688 28.5956C21.7987 28.4272 21.6635 28.4397 21.4974 28.6016C21.3568 28.7387 21.1903 28.841 21.0352 28.9587C21.0106 28.9366 20.9861 28.9145 20.9615 28.8923C20.9872 28.7612 21.0128 28.63 21.0451 28.4699Z" fill="#F7DB5D"/>
<path d="M16.995 12.1604C17.2066 11.7024 17.1273 11.3842 16.7318 11.1724C16.6479 11.1275 16.5862 11.0282 16.4443 10.8818C16.6265 10.8429 16.7254 10.8074 16.8253 10.8029C17.3711 10.7784 17.3703 10.7807 17.5593 10.1807C17.5886 10.088 17.6291 10 17.6998 9.81915C17.7797 9.98221 17.8518 10.0675 17.8629 10.1621C17.9266 10.7087 18.1964 10.8966 18.6556 10.8057C18.7347 10.79 18.8233 10.8373 19.0121 10.8781C18.7962 11.0751 18.6624 11.2257 18.5059 11.333C18.2999 11.4741 18.2696 11.6393 18.3571 11.8825C18.4234 12.0666 18.4518 12.2685 18.497 12.4625C18.472 12.4885 18.447 12.5145 18.4219 12.5405C18.279 12.4367 18.1202 12.353 17.9969 12.2246C17.8032 12.0228 17.6402 12.0101 17.4431 12.2173C17.3226 12.3441 17.1693 12.4302 16.9499 12.5954C16.9675 12.3927 16.9763 12.2914 16.995 12.1604Z" fill="#F7DB5D"/>
<path d="M11.1164 19.8204C10.6015 20.2007 10.3976 20.6688 10.6925 21.3267C10.6973 21.3375 10.6699 21.3672 10.6291 21.4363C10.4945 21.3394 10.343 21.2593 10.2237 21.1379C10.022 20.9328 9.84874 20.899 9.63977 21.1293C9.52379 21.2571 9.36749 21.3372 9.22937 21.4388C9.20001 21.4186 9.17066 21.3985 9.14131 21.3784C9.18952 21.1784 9.2215 20.9707 9.29004 20.7802C9.37728 20.5377 9.35146 20.3742 9.13927 20.2373C8.98135 20.1354 8.84731 19.9852 8.70264 19.8565C8.71788 19.8153 8.73313 19.7742 8.74837 19.733C8.92214 19.7218 9.0979 19.6865 9.2692 19.705C9.51895 19.732 9.64529 19.6246 9.69776 19.3469C9.7324 19.1636 9.80604 18.9899 9.89774 18.6994C9.99082 18.885 10.0646 18.9693 10.0748 19.0627C10.135 19.614 10.4085 19.7936 10.8664 19.7079C10.943 19.6936 11.0313 19.7613 11.1164 19.8204Z" fill="#F9DC5C"/>
<path d="M17.0774 28.6015C17.3136 28.6398 17.4173 28.5384 17.4668 28.3067C17.5107 28.1015 17.5939 27.9074 17.6597 27.7084C17.6969 27.7037 17.7342 27.6991 17.7714 27.6945C17.8383 27.8996 17.9233 28.0998 17.9674 28.3111C18.0162 28.5452 18.1226 28.6242 18.326 28.6052C18.5183 28.5872 18.713 28.6013 18.9066 28.6013C18.9165 28.6519 18.9264 28.7025 18.9364 28.7531C18.7906 28.8849 18.6529 29.0312 18.4969 29.1446C18.3137 29.2777 18.2643 29.4264 18.349 29.6615C18.4193 29.8567 18.4525 30.0694 18.5021 30.2743C18.4743 30.2993 18.4465 30.3243 18.4187 30.3494C18.2658 30.2341 18.0987 30.1371 17.9636 29.9992C17.7834 29.8151 17.6388 29.8284 17.4631 30.0039C17.3315 30.1352 17.1722 30.2302 17.0252 30.3414C16.9943 30.3221 16.9634 30.3027 16.9325 30.2834C17.0041 29.9744 17.0757 29.6654 17.1502 29.3437C16.9308 29.1495 16.7144 28.9579 16.498 28.7664C16.5106 28.7242 16.5231 28.682 16.5357 28.6398C16.7062 28.6271 16.8766 28.6144 17.0774 28.6015Z" fill="#F9DC5C"/>
<path d="M25.4096 20.9832C25.1981 21.151 25.0068 21.3018 24.8155 21.4527C24.783 21.4275 24.7504 21.4024 24.7178 21.3773C24.7703 21.1637 24.8066 20.9425 24.8798 20.7387C24.9592 20.5174 24.9144 20.3833 24.7413 20.2587C24.5835 20.1451 24.4455 19.9957 24.2988 19.8621C24.3057 19.8201 24.3125 19.7781 24.3193 19.7362C24.4869 19.7239 24.6569 19.6859 24.8216 19.7054C25.0824 19.7362 25.2229 19.6328 25.2785 19.3353C25.3126 19.1533 25.3896 18.9817 25.4473 18.8054C25.4801 18.8021 25.5128 18.7987 25.5456 18.7953C25.614 18.9868 25.7066 19.1722 25.7449 19.3713C25.797 19.6423 25.9196 19.7277 26.1522 19.7045C26.3261 19.6871 26.5037 19.7185 26.6796 19.7282C26.6938 19.7647 26.708 19.8011 26.7222 19.8375C26.5929 19.9616 26.4747 20.107 26.3317 20.2048C26.1102 20.3561 26.0376 20.5271 26.1523 20.81C26.2209 20.979 26.2407 21.1737 26.219 21.427C26.1019 21.3509 25.9871 21.2696 25.8671 21.2C25.7237 21.1168 25.5758 21.0436 25.4096 20.9832Z" fill="#F9DC5C"/>
<path d="M13.9473 10.9169C14.0874 11.2038 14.1425 11.5883 14.3384 11.7501C14.5196 11.8997 14.8515 11.8107 15.1171 11.8268C15.1316 11.8631 15.1461 11.8994 15.1606 11.9356C15.0313 12.0595 14.9131 12.2045 14.7702 12.3024C14.5498 12.4534 14.4802 12.6235 14.5934 12.9049C14.6647 13.0822 14.6856 13.2859 14.7291 13.4778C14.702 13.4976 14.6749 13.5174 14.6477 13.5372C14.5008 13.4275 14.3389 13.3366 14.2104 13.2037C14.0213 13.0081 13.8661 13.0217 13.6803 13.2072C13.5497 13.3375 13.39 13.4298 13.2433 13.539C13.2157 13.5178 13.1881 13.4966 13.1606 13.4755C13.2333 13.1713 13.306 12.867 13.3825 12.5469C13.1671 12.3476 12.9481 12.145 12.729 11.9423C12.7456 11.8943 12.7621 11.8464 12.7787 11.7984C12.9645 11.7984 13.1514 11.7838 13.3358 11.8023C13.5408 11.8229 13.6415 11.7396 13.6959 11.5075C13.744 11.3023 13.8457 11.1135 13.9473 10.9169Z" fill="#FADD5C"/>
<path d="M21.4347 13.2422C21.295 13.3513 21.1755 13.4425 21.056 13.5338C21.024 13.5172 20.992 13.5005 20.96 13.4839C21.0027 13.287 21.0283 13.0824 21.0924 12.8951C21.179 12.6422 21.1597 12.4642 20.9345 12.3194C20.785 12.2234 20.6618 12.074 20.5269 11.9485C20.5358 11.9143 20.5448 11.88 20.5537 11.8458C20.6449 11.8306 20.7357 11.8054 20.8272 11.8019C21.386 11.7803 21.3852 11.7816 21.583 11.1671C21.6125 11.0757 21.6541 10.9895 21.7858 10.8847C21.8459 11.0654 21.9237 11.2415 21.962 11.4281C22.0202 11.7118 22.1422 11.8429 22.4101 11.8046C22.571 11.7815 22.7381 11.8154 22.9025 11.8238C22.9212 11.8652 22.94 11.9066 22.9587 11.9481C22.7475 12.1384 22.5363 12.3287 22.3056 12.5366C22.3752 12.8413 22.4472 13.1564 22.5192 13.4716C22.4933 13.4933 22.4674 13.515 22.4415 13.5368C22.2966 13.4299 22.1362 13.3424 22.0102 13.2116C21.8104 13.0043 21.6364 13.0141 21.4347 13.2422Z" fill="#FADD5C"/>
<path d="M11.6737 16.721C11.4764 16.5649 11.3004 16.4221 11.1043 16.263C10.8756 16.4393 10.6454 16.6166 10.3242 16.8641C10.3508 16.6381 10.3522 16.5221 10.379 16.4144C10.5319 15.7997 10.5327 15.8022 10.103 15.4188C10.0237 15.348 9.95909 15.2556 9.8667 15.1489C10.3983 14.9844 10.7515 14.6862 11.0434 14.191C11.0536 14.1736 11.0834 14.1712 11.1418 14.1447C11.188 14.2696 11.2573 14.3908 11.2766 14.5216C11.3403 14.9513 11.529 15.1537 11.9255 15.0708C12.0388 15.0471 12.1617 15.0837 12.2802 15.0927C12.2941 15.1288 12.3079 15.1649 12.3218 15.201C12.1701 15.3378 12.0268 15.4895 11.8646 15.6074C11.6906 15.734 11.6402 15.8734 11.7281 16.0929C11.7843 16.2334 11.8116 16.3891 11.85 16.5386C11.8909 16.6981 11.8776 16.8046 11.6737 16.721Z" fill="#FADD5C"/>
<path d="M23.9717 15.0639C24.1765 15.0944 24.2728 15.0091 24.3216 14.8142C24.3788 14.5856 24.4563 14.3637 24.525 14.1389C24.5609 14.1388 24.5968 14.1386 24.6326 14.1385C24.695 14.3233 24.7766 14.503 24.8152 14.6941C24.8735 14.9825 25.002 15.1077 25.2666 15.069C25.4285 15.0453 25.5951 15.0646 25.7596 15.0646C25.7715 15.1007 25.7834 15.1369 25.7954 15.1731C25.724 15.2555 25.6596 15.3481 25.5803 15.4189C25.1506 15.8026 25.1495 15.8007 25.3058 16.4123C25.3248 16.4865 25.3468 16.5607 25.3564 16.6367C25.3606 16.6694 25.3369 16.7067 25.3078 16.7996C25.176 16.7077 25.056 16.6284 24.9401 16.542C24.8265 16.4573 24.7171 16.3652 24.5884 16.2625C24.4661 16.3598 24.3489 16.456 24.229 16.5477C24.1199 16.6311 24.0079 16.7096 23.8972 16.7902C23.8662 16.7731 23.8353 16.7559 23.8043 16.7387C23.8479 16.5422 23.8705 16.3354 23.9399 16.1517C24.0385 15.8905 24.0005 15.7199 23.7805 15.5739C23.6305 15.4743 23.5051 15.3263 23.3687 15.1999C23.3764 15.1649 23.3842 15.1299 23.392 15.0949C23.5752 15.0847 23.7584 15.0745 23.9717 15.0639Z" fill="#FADD5C"/>
<path d="M11.0062 23.1418C11.0834 23.1448 11.2018 23.1663 11.2057 23.2035C11.2787 23.9004 11.6582 24.0694 12.1981 23.9832C12.2232 23.9792 12.2532 24.0159 12.3451 24.0749C12.1681 24.2371 12.0263 24.3915 11.8641 24.5094C11.6893 24.6365 11.6476 24.7727 11.7268 24.9947C11.799 25.197 11.8329 25.417 11.8837 25.6291C11.8535 25.6521 11.8234 25.675 11.7932 25.6979C11.5638 25.5243 11.3343 25.3506 11.0994 25.1728C10.8656 25.3485 10.6342 25.5222 10.4028 25.696C10.3726 25.6746 10.3425 25.6532 10.3123 25.6318C10.3563 25.4451 10.3827 25.2498 10.4484 25.0737C10.549 24.8044 10.5123 24.619 10.2816 24.4663C10.1354 24.3694 10.0142 24.2229 9.88184 24.0987C9.8931 24.0642 9.90437 24.0297 9.91563 23.9952C10.0555 23.9858 10.1987 23.9496 10.3345 23.9722C10.6702 24.0283 10.8391 23.8671 10.8916 23.4968C10.9076 23.3837 10.9589 23.2772 11.0062 23.1418Z" fill="#FADD5C"/>
<path d="M23.8409 25.4103C24.0266 24.7208 24.0283 24.7184 23.5541 24.2957C23.4844 24.2335 23.3901 24.2075 23.3071 24.1648C23.3361 24.1108 23.365 24.0568 23.394 24.0028C23.5098 23.9911 23.6302 23.9504 23.7408 23.9729C24.1495 24.0564 24.3467 23.8476 24.4107 23.4039C24.428 23.2836 24.4907 23.1718 24.6245 23.0391C24.6878 23.2168 24.7752 23.3887 24.8091 23.5734C24.866 23.883 25.0005 24.0152 25.2816 23.9706C25.4347 23.9463 25.5933 23.9663 25.792 24.058C25.7173 24.1499 25.6573 24.2763 25.5652 24.3276C25.1686 24.5488 25.1032 24.8672 25.2989 25.2972C25.3419 25.3917 25.3455 25.5096 25.3672 25.6168C25.3427 25.644 25.3182 25.6712 25.2938 25.6984C25.057 25.5246 24.8203 25.3508 24.5741 25.17C24.3975 25.3126 24.2257 25.4614 24.045 25.5944C23.8904 25.7083 23.7746 25.7183 23.8409 25.4103Z" fill="#FADD5C"/>
</g>
<defs>
<clipPath id="clip0_47_114">
<rect width="35" height="40" fill="white"/>
</clipPath>
</defs>
</svg>
